<svg width="32" height="32" viewBox="0 0 32 32" fill="none" xmlns="http://www.w3.org/2000/svg">
<path d="M20.5273 8.37414C20.5273 8.61214 20.3333 8.80814 20.0953 8.80814H17.9353C16.9803 8.80814 16.2073 9.58514 16.2073 10.5431V13.5801H19.8363C20.2533 13.5801 20.5743 13.9461 20.5233 14.3611L20.2633 16.4421C20.2203 16.7901 19.9253 17.0511 19.5773 17.0511H16.2073V25.7511C15.8513 25.7821 15.4913 25.7991 15.1273 25.7991C14.3133 25.7991 13.5183 25.7181 12.7503 25.5621V17.0511H10.1583C9.9203 17.0511 9.72631 16.8551 9.72631 16.6171V14.0141C9.72631 13.7751 9.9203 13.5801 10.1583 13.5801H12.7503V9.67514C12.7503 7.27914 14.6853 5.33714 17.0713 5.33714H20.0953C20.3333 5.33714 20.5273 5.53214 20.5273 5.77014V8.37414ZM15.9153 0.0151367C7.3253 0.0151367 0.362305 6.97814 0.362305 15.5671C0.362305 24.1571 7.3253 31.1211 15.9153 31.1211C24.5053 31.1211 31.4683 24.1571 31.4683 15.5671C31.4683 6.97814 24.5053 0.0151367 15.9153 0.0151367Z" fill="white"/>
</svg>
