<svg width="24" height="25" viewBox="0 0 24 25" fill="none" xmlns="http://www.w3.org/2000/svg">
<path d="M24 12.6686C24 11.8417 23.92 10.9882 23.7866 10.1879H12.2367V14.9093H18.8519C18.5852 16.4297 17.7049 17.7634 16.3979 18.6169L20.3457 21.6845C22.6663 19.5239 24 16.3763 24 12.6686Z" fill="#4280EF"/>
<path d="M12.2367 24.6186C15.5443 24.6186 18.3184 23.525 20.3457 21.6578L16.3979 18.6169C15.3043 19.3638 13.8905 19.7906 12.2367 19.7906C9.03584 19.7906 6.34176 17.63 5.35482 14.7492L1.30036 17.8701C3.38094 22.0046 7.59544 24.6186 12.2367 24.6186Z" fill="#34A353"/>
<path d="M5.35482 14.7225C4.84801 13.2021 4.84801 11.5483 5.35482 10.0279L1.30036 6.88035C-0.433454 10.348 -0.433454 14.4291 1.30036 17.8701L5.35482 14.7225Z" fill="#F6B704"/>
<path d="M12.2367 4.9865C13.9705 4.95982 15.6777 5.62667 16.9314 6.82701L20.4257 3.30603C18.2117 1.22545 15.2776 0.105139 12.2367 0.131813C7.59544 0.131813 3.38094 2.74587 1.30036 6.88035L5.35482 10.0279C6.34176 7.12042 9.03584 4.9865 12.2367 4.9865Z" fill="#E54335"/>
</svg>
