<svg width="48" height="48" viewBox="0 0 48 48" fill="none" xmlns="http://www.w3.org/2000/svg">
<path d="M24 47.1539C11.2308 47.1539 0.846191 36.7693 0.846191 24C0.846191 11.2308 11.2308 0.846191 24 0.846191C36.7693 0.846191 47.1539 11.2308 47.1539 24C47.1539 36.7693 36.7693 47.1539 24 47.1539Z" fill="url(#paint0_linear_854_921)"/>
<path d="M24 1.69231C36.3231 1.69231 46.3077 11.6769 46.3077 24C46.3077 36.3231 36.3231 46.3077 24 46.3077C11.6769 46.3077 1.69231 36.3231 1.69231 24C1.69231 11.6769 11.6769 1.69231 24 1.69231ZM24 0C10.7692 0 0 10.7692 0 24C0 37.2308 10.7615 48 24 48C37.2385 48 48 37.2385 48 24C48 10.7615 37.2308 0 24 0Z" fill="white"/>
<path d="M13.892 18.2079H15.6613V28.031H13.892V23.7694H8.86127V28.031H7.10742V18.2079H8.86127V22.3156H13.892V18.2079Z" fill="white"/>
<path d="M17.7767 28.0233V18.2002H24.3459V19.6079H19.5151V22.3233H24.0536V23.731H19.5151V26.6156H24.3459V28.0233H17.7767Z" fill="white"/>
<path d="M25.9843 28.0233V18.2002H27.7613V26.5617H32.3536V28.0233H25.9843Z" fill="white"/>
<path d="M33.7074 18.2079H37.969C39.0228 18.2079 39.8459 18.4617 40.4382 18.9771C41.0228 19.4848 41.3228 20.1848 41.3228 21.0694C41.3228 21.954 41.0228 22.654 40.4305 23.1694C39.8382 23.6848 39.0151 23.9387 37.969 23.9387H35.4843V28.0387H33.7074V18.2079ZM37.769 22.5464C38.3843 22.5464 38.8536 22.4233 39.169 22.1694C39.4843 21.9156 39.6459 21.554 39.6459 21.0694C39.6459 20.5848 39.492 20.2156 39.1767 19.9617C38.8613 19.7079 38.392 19.5848 37.769 19.5848H35.492V22.554H37.769V22.5464Z" fill="white"/>
<path d="M41.369 15.5848C41.0306 15.5848 40.6921 15.4156 40.4998 15.1002C40.4536 15.0233 36.6998 9.01557 30.7383 6.76172C30.2152 6.56172 29.9536 5.9771 30.146 5.45403C30.346 4.93095 30.9306 4.66941 31.4536 4.86172C34.9306 6.1771 37.6767 8.60018 39.3613 10.4002C41.1767 12.3386 42.1844 13.9694 42.2229 14.0386C42.5152 14.5156 42.3613 15.1386 41.8844 15.431C41.7229 15.5309 41.5383 15.5771 41.3536 15.5771L41.369 15.5848Z" fill="#A3D074"/>
<path d="M28.1767 6.20049C28.7842 6.20049 29.2767 5.708 29.2767 5.10049C29.2767 4.49298 28.7842 4.00049 28.1767 4.00049C27.5691 4.00049 27.0767 4.49298 27.0767 5.10049C27.0767 5.708 27.5691 6.20049 28.1767 6.20049Z" fill="#A3D074"/>
<path d="M19.8153 38.3118V38.9089H15.7033V38.3771L17.9392 35.9979C18.2405 35.6806 18.4544 35.3821 18.5905 35.1301C18.7266 34.8689 18.7946 34.617 18.7946 34.3557C18.7946 34.0198 18.6974 33.7586 18.4933 33.5813C18.2891 33.404 17.9975 33.3107 17.6281 33.3107C17.0157 33.3107 16.413 33.544 15.82 34.0198L15.5381 33.4787C15.7908 33.2454 16.1019 33.0681 16.4907 32.9282C16.8699 32.7882 17.2587 32.7229 17.6476 32.7229C18.2308 32.7229 18.6974 32.8722 19.0377 33.1614C19.3779 33.4507 19.5529 33.8426 19.5529 34.3371C19.5529 34.6916 19.4751 35.0275 19.3099 35.3447C19.1446 35.6713 18.8724 36.0352 18.4933 36.4364L16.6755 38.3304H19.8348L19.8153 38.3118Z" fill="white"/>
<path d="M25.4341 36.9869V37.5747H24.462V38.9089H23.7232V37.5747H20.7777V37.0428L23.8496 32.7789H24.4523V36.9869H25.4341ZM21.5457 36.9869H23.7232V33.9732L21.5457 36.9869Z" fill="white"/>
<path d="M26.1826 39.3847H25.5216L27.8255 32.4617H28.4962L26.1826 39.3847Z" fill="white"/>
<path d="M32.2972 35.3074C32.5985 35.4754 32.8318 35.6993 32.9874 35.9885C33.1429 36.2778 33.2304 36.623 33.2304 37.0055C33.2304 37.3881 33.1429 37.7333 32.9679 38.0319C32.7929 38.3304 32.5402 38.5637 32.2194 38.7223C31.8889 38.8902 31.5098 38.9649 31.0723 38.9649C30.6835 38.9649 30.3044 38.8996 29.9252 38.7596C29.5461 38.629 29.235 38.4424 28.9726 38.1998L29.2545 37.6586C29.8475 38.1252 30.4502 38.3677 31.0723 38.3677C31.5195 38.3677 31.8694 38.2464 32.1222 38.0039C32.3749 37.7613 32.5013 37.4254 32.5013 37.0055C32.5013 36.5857 32.3749 36.2684 32.1222 36.0165C31.8694 35.7646 31.5389 35.6433 31.1209 35.6433C30.5085 35.6433 30.0225 35.8859 29.6628 36.3617H29.1476V32.7696H32.9776V33.3574H29.8864V35.5407C30.2363 35.2141 30.6932 35.0462 31.2376 35.0462C31.6361 35.0462 31.9861 35.1301 32.2875 35.2887L32.2972 35.3074Z" fill="white"/>
<defs>
<linearGradient id="paint0_linear_854_921" x1="24" y1="47.1539" x2="24" y2="0.846191" gradientUnits="userSpaceOnUse">
<stop stop-color="#6AA142"/>
<stop offset="1" stop-color="#90C854"/>
</linearGradient>
</defs>
</svg>
