<svg width="32" height="32" viewBox="0 0 32 32" fill="none" xmlns="http://www.w3.org/2000/svg">
<path d="M20.636 11.9114C20.171 11.9114 19.792 11.5324 19.792 11.0664C19.792 10.6014 20.171 10.2234 20.636 10.2234C21.102 10.2234 21.481 10.6014 21.481 11.0664C21.481 11.5324 21.102 11.9114 20.636 11.9114ZM16.135 19.7884C13.806 19.7884 11.915 17.8974 11.915 15.5674C11.915 13.2384 13.806 11.3484 16.135 11.3484C18.465 11.3484 20.355 13.2384 20.355 15.5674C20.355 17.8974 18.465 19.7884 16.135 19.7884ZM20.066 8.81641H12.189C10.636 8.81641 9.375 10.0764 9.375 11.6304V19.5064C9.375 21.0594 10.636 22.3194 12.189 22.3194H20.066C21.618 22.3194 22.879 21.0594 22.879 19.5064V11.6304C22.879 10.0764 21.618 8.81641 20.066 8.81641Z" fill="white"/>
<path d="M24.2852 19.7881C24.2852 21.9621 22.5212 23.7261 20.3472 23.7261H11.9072C9.73222 23.7261 7.96922 21.9621 7.96922 19.7881V11.3481C7.96922 9.17314 9.73222 7.40914 11.9072 7.40914H20.3472C22.5212 7.40914 24.2852 9.17314 24.2852 11.3481V19.7881ZM16.1272 0.0151367C7.53722 0.0151367 0.574219 6.97714 0.574219 15.5671C0.574219 24.1571 7.53722 31.1211 16.1272 31.1211C24.7172 31.1211 31.6802 24.1571 31.6802 15.5671C31.6802 6.97714 24.7172 0.0151367 16.1272 0.0151367Z" fill="white"/>
<path d="M16.1348 12.7549C14.5848 12.7549 13.3218 14.0179 13.3218 15.5679C13.3218 17.1179 14.5848 18.3809 16.1348 18.3809C17.6858 18.3809 18.9478 17.1179 18.9478 15.5679C18.9478 14.0179 17.6858 12.7549 16.1348 12.7549Z" fill="white"/>
</svg>
