<svg width="318" height="400" viewBox="0 0 318 400" fill="none" xmlns="http://www.w3.org/2000/svg">
<path d="M292.342 331.539L285.303 316.906L279.267 332.064L292.342 331.539ZM293.521 333.855L278.246 334.469L276.598 338.752C276.059 340.179 275.807 341.349 275.844 342.264C275.893 343.475 276.417 344.349 277.418 344.883C278.006 345.2 279.429 345.398 281.69 345.478L281.738 346.657L267.356 347.235L267.309 346.056C268.85 345.759 270.101 345.064 271.058 343.973C272.014 342.88 273.16 340.657 274.495 337.303L288.575 302.179L289.181 302.154L306.199 336.988C307.821 340.287 309.129 342.353 310.12 343.186C310.869 343.816 311.905 344.158 313.229 344.212L313.276 345.392L292.357 346.231L292.31 345.052L293.17 345.018C294.849 344.95 296.02 344.668 296.682 344.173C297.135 343.814 297.35 343.316 297.324 342.678C297.309 342.296 297.23 341.905 297.086 341.506C297.034 341.316 296.685 340.531 296.032 339.152L293.521 333.855Z" fill="#E1E1E1"/>
<path d="M297.422 68.6855C297.332 68.7745 295.953 67.4005 293.292 65.1225C291.961 63.9855 290.305 62.6265 288.304 61.1615C286.297 59.7075 283.946 58.1315 281.192 56.7045C279.815 55.9955 278.337 55.3165 276.752 54.7805C275.172 54.2565 273.461 53.8315 271.739 53.8895C270.885 53.9185 270.035 54.0865 269.306 54.4675C268.569 54.8375 268.007 55.4705 267.644 56.2345C267.276 57.0015 267.145 57.9205 267.146 58.8585C267.149 59.8015 267.288 60.7735 267.509 61.7465C267.971 63.6935 268.735 65.6425 269.67 67.5585C270.61 69.4765 271.715 71.3705 272.95 73.2295C275.412 76.9555 278.375 80.5455 281.672 83.9625C284.987 87.3625 288.488 90.4335 292.139 93.0075C293.96 94.2995 295.82 95.4615 297.709 96.4585C299.597 97.4515 301.522 98.2745 303.454 98.7955C304.42 99.0455 305.388 99.2145 306.33 99.2465C307.268 99.2745 308.191 99.1725 308.968 98.8265C309.743 98.4875 310.393 97.9435 310.784 97.2185C311.187 96.5005 311.38 95.6565 311.436 94.8035C311.545 93.0835 311.171 91.3605 310.695 89.7655C310.207 88.1645 309.574 86.6675 308.907 85.2695C307.564 82.4735 306.059 80.0765 304.667 78.0265C303.262 75.9815 301.955 74.2855 300.859 72.9215C298.662 70.1925 297.331 68.7735 297.422 68.6855C297.46 68.6485 297.833 68.9645 298.509 69.6015C299.177 70.2445 300.143 71.2145 301.317 72.5325C302.492 73.8475 303.882 75.5045 305.371 77.5275C306.85 79.5575 308.443 81.9475 309.887 84.7865C310.604 86.2065 311.289 87.7375 311.833 89.4085C312.36 91.0795 312.805 92.8955 312.715 94.8795C312.664 95.8635 312.458 96.9035 311.938 97.8635C311.433 98.8315 310.531 99.6205 309.512 100.071C308.486 100.535 307.371 100.658 306.294 100.638C305.212 100.613 304.146 100.434 303.099 100.174C301.012 99.6315 298.993 98.7825 297.026 97.7675C295.061 96.7465 293.141 95.5615 291.269 94.2455C287.515 91.6235 283.941 88.5015 280.563 85.0385C277.205 81.5585 274.193 77.8925 271.687 74.0615C270.429 72.1515 269.303 70.1965 268.342 68.2015C267.387 66.2055 266.599 64.1625 266.12 62.0605C265.892 61.0055 265.745 59.9355 265.753 58.8525C265.766 57.7755 265.921 56.6645 266.416 55.6535C266.898 54.6485 267.713 53.7705 268.695 53.2955C269.671 52.8035 270.717 52.6295 271.701 52.6085C273.688 52.5785 275.489 53.0765 277.144 53.6545C278.797 54.2485 280.306 54.9795 281.704 55.7395C284.498 57.2675 286.84 58.9335 288.824 60.4725C290.801 62.0225 292.416 63.4605 293.694 64.6765C294.977 65.8895 295.917 66.8845 296.54 67.5725C297.156 68.2675 297.46 68.6485 297.422 68.6855Z" fill="#E1E1E1"/>
<path d="M279.65 73.1241C279.77 73.1621 279.231 74.9671 278.522 78.2821C278.169 79.9381 277.78 81.9751 277.465 84.3541C277.168 86.7321 276.924 89.4601 277.018 92.4591C277.07 93.9561 277.188 95.5241 277.501 97.1101C277.812 98.6871 278.277 100.327 279.158 101.737C279.596 102.436 280.147 103.063 280.817 103.5C281.484 103.941 282.282 104.142 283.103 104.115C283.928 104.091 284.78 103.826 285.589 103.416C286.401 103.007 287.182 102.469 287.92 101.849C289.4 100.608 290.735 99.0861 291.967 97.4351C293.191 95.7741 294.325 93.9811 295.358 92.0861C297.438 88.3021 299.161 84.1401 300.562 79.7671C301.941 75.3851 302.935 70.9901 303.42 66.6981C303.669 64.5541 303.777 62.4361 303.735 60.3721C303.68 58.3111 303.468 56.2981 302.974 54.4311C302.73 53.4981 302.402 52.6081 301.974 51.8061C301.549 51.0031 301.007 50.2961 300.347 49.8001C299.691 49.3051 298.923 49.0081 298.125 48.9841C297.325 48.9551 296.513 49.1501 295.752 49.4681C294.219 50.1121 292.893 51.1831 291.729 52.2921C290.559 53.4081 289.557 54.6211 288.652 55.8131C286.846 58.2091 285.471 60.5781 284.342 62.6921C283.227 64.8171 282.371 66.7041 281.704 68.2611C280.371 71.3771 279.77 73.1631 279.65 73.1241C279.598 73.1081 279.696 72.6451 279.928 71.7771C280.171 70.9121 280.554 69.6431 281.144 68.0401C281.731 66.4361 282.515 64.4941 283.572 62.3021C284.643 60.1191 285.972 57.6721 287.772 55.1661C288.676 53.9171 289.684 52.6411 290.895 51.4401C292.105 50.2491 293.487 49.0691 295.25 48.2901C296.128 47.9081 297.118 47.6401 298.171 47.6641C299.224 47.6791 300.297 48.0701 301.162 48.7141C302.036 49.3561 302.697 50.2221 303.198 51.1411C303.703 52.0621 304.072 53.0471 304.348 54.0551C304.902 56.0751 305.137 58.1861 305.21 60.3311C305.269 62.4771 305.169 64.6621 304.923 66.8651C304.447 71.2761 303.441 75.7641 302.034 80.2341C300.605 84.6961 298.837 88.9411 296.683 92.8181C295.613 94.7591 294.434 96.6011 293.148 98.3191C291.852 100.029 290.442 101.618 288.825 102.947C288.018 103.612 287.149 104.203 286.205 104.665C285.265 105.126 284.226 105.452 283.142 105.473C282.065 105.5 280.962 105.201 280.094 104.606C279.219 104.019 278.565 103.228 278.068 102.41C277.078 100.757 276.629 98.9961 276.328 97.3251C276.031 95.6461 275.944 94.0221 275.925 92.4811C275.901 89.3951 276.227 86.6291 276.611 84.2281C277.012 81.8281 277.491 79.7891 277.937 78.1411C278.38 76.4901 278.798 75.2311 279.1 74.3851C279.411 73.5421 279.598 73.1081 279.65 73.1241Z" fill="#E1E1E1"/>
<path d="M285.729 64.5533C285.761 64.6763 283.942 65.1673 280.75 66.3083C279.155 66.8793 277.219 67.6203 275.031 68.6053C272.851 69.6033 270.404 70.8323 267.903 72.4893C266.658 73.3213 265.386 74.2463 264.202 75.3473C263.024 76.4413 261.875 77.6993 261.139 79.1913C260.776 79.9313 260.531 80.7303 260.512 81.5293C260.489 82.3283 260.738 83.1123 261.193 83.7973C261.647 84.4863 262.321 85.0703 263.095 85.5433C263.87 86.0183 264.739 86.4003 265.655 86.7003C267.488 87.3063 269.485 87.6403 271.538 87.8203C273.594 87.9873 275.714 88.0083 277.87 87.8893C282.182 87.6673 286.628 86.9413 291.084 85.8313C295.536 84.6993 299.796 83.2323 303.701 81.3853C305.656 80.4693 307.514 79.4463 309.247 78.3243C310.97 77.1943 312.571 75.9543 313.899 74.5523C314.563 73.8533 315.148 73.1063 315.605 72.3203C316.063 71.5373 316.379 70.7033 316.454 69.8813C316.53 69.0623 316.378 68.2543 315.978 67.5613C315.583 66.8663 314.989 66.2793 314.318 65.7993C312.964 64.8343 311.356 64.2703 309.8 63.8643C308.236 63.4563 306.677 63.2423 305.187 63.1003C302.199 62.8253 299.461 62.9023 297.07 63.0553C294.676 63.2253 292.621 63.4893 290.945 63.7413C287.594 64.2473 285.759 64.6763 285.729 64.5533C285.716 64.5013 286.161 64.3413 287.021 64.0813C287.884 63.8323 289.166 63.4913 290.839 63.1493C292.512 62.8033 294.576 62.4493 296.997 62.1953C299.417 61.9573 302.196 61.8003 305.275 62.0113C306.812 62.1233 308.427 62.3083 310.085 62.7063C311.735 63.1083 313.466 63.6623 315.056 64.7523C315.842 65.2973 316.592 65.9983 317.125 66.9073C317.666 67.8093 317.899 68.9283 317.807 70.0023C317.72 71.0833 317.332 72.1013 316.814 73.0113C316.295 73.9253 315.653 74.7573 314.941 75.5223C313.514 77.0563 311.843 78.3673 310.057 79.5573C308.264 80.7363 306.353 81.8023 304.35 82.7523C300.349 84.6673 296.002 86.1743 291.461 87.3303C286.916 88.4623 282.375 89.1933 277.945 89.4013C275.731 89.5123 273.544 89.4783 271.407 89.2893C269.271 89.0873 267.178 88.7233 265.197 88.0483C264.207 87.7123 263.247 87.2833 262.357 86.7243C261.47 86.1673 260.647 85.4553 260.058 84.5453C259.468 83.6433 259.143 82.5483 259.191 81.4963C259.231 80.4433 259.559 79.4713 259.993 78.6183C260.877 76.9063 262.139 75.5983 263.402 74.4633C264.673 73.3273 266.008 72.3983 267.309 71.5723C269.92 69.9273 272.444 68.7493 274.688 67.8123C276.94 66.8903 278.925 66.2243 280.562 65.7373C282.199 65.2453 283.49 64.9393 284.368 64.7493C285.249 64.5703 285.716 64.5013 285.729 64.5533Z" fill="#E1E1E1"/>
<path d="M295.07 75.2768C295.74 77.9378 294.126 80.6388 291.465 81.3088C288.803 81.9788 286.102 80.3648 285.432 77.7038C284.762 75.0428 286.377 72.3418 289.038 71.6718C291.699 71.0018 294.399 72.6158 295.07 75.2768Z" fill="#E1E1E1"/>
<path d="M257.762 136.53C260.623 135.211 263.877 133.862 263.877 133.862L266.703 132.509C266.73 132.716 266.726 132.931 266.715 133.139C266.695 133.535 266.669 133.951 266.845 134.307C267.178 134.982 268.083 135.151 268.833 135.044C270.403 134.821 271.812 133.71 272.383 132.243C272.933 130.834 272.682 129.156 271.766 127.951C271.802 127.553 271.773 127.128 271.633 126.669C270.776 123.854 266.682 122.618 266.682 122.618L267.605 122.007C267.605 122.007 270.971 121.37 274.38 125.939C274.889 126.621 275.623 127.133 276.461 127.302C276.975 127.406 277.522 127.382 277.959 127.038C279.05 126.182 278.722 125.192 276.633 122.311C274.545 119.43 271.571 117.338 269.177 117.305C266.783 117.273 265.846 117.414 265.846 117.414C265.846 117.414 273.849 111.415 274.339 111.015C275.76 109.859 276.43 108.258 275.745 107.24C275.306 106.588 274.268 106.089 272.572 107.385C271.104 108.507 254.596 118.098 254.596 118.098L247.543 122.767L242.353 127.563L238.784 129.764L246.079 141.635L251.079 137.073C253.302 137.683 255.671 137.493 257.762 136.53Z" fill="#FFC09D"/>
<path d="M266.557 122.544C266.591 122.617 267.212 121.975 268.49 121.895C269.115 121.858 269.862 122.043 270.556 122.502C271.258 122.952 271.897 123.632 272.517 124.397C273.141 125.161 273.744 125.917 274.439 126.475C275.13 127.027 275.87 127.4 276.557 127.496C277.254 127.604 277.822 127.314 278.077 127.044C278.343 126.771 278.411 126.57 278.398 126.563C278.367 126.54 278.251 126.711 277.977 126.928C277.703 127.143 277.214 127.347 276.602 127.22C275.996 127.105 275.312 126.732 274.673 126.196C274.033 125.656 273.454 124.919 272.826 124.148C272.198 123.375 271.518 122.662 270.751 122.195C269.993 121.716 269.146 121.537 268.469 121.617C267.786 121.685 267.284 121.939 266.977 122.148C266.668 122.361 266.542 122.527 266.557 122.544Z" fill="#FF9B6C"/>
<path d="M266.145 125.69C266.132 125.717 266.334 125.818 266.679 126.011C267.003 126.202 267.545 126.533 267.677 127.179C267.743 127.491 267.62 127.824 267.332 128.09C267.058 128.363 266.666 128.561 266.248 128.8C265.84 129.033 265.348 129.362 265.148 129.936C264.962 130.496 265.092 131.132 265.451 131.617C265.817 132.114 266.397 132.376 266.946 132.44C267.501 132.502 268.039 132.42 268.503 132.18C269.369 131.699 270.004 131.117 270.514 130.598C271.014 130.072 271.352 129.578 271.512 129.2C271.672 128.82 271.668 128.585 271.651 128.584C271.615 128.578 271.567 128.793 271.374 129.131C271.18 129.469 270.825 129.916 270.315 130.402C269.803 130.876 269.142 131.433 268.337 131.857C267.581 132.228 266.367 132.178 265.771 131.384C265.481 130.995 265.38 130.477 265.517 130.058C265.656 129.636 266.04 129.346 266.436 129.111C266.832 128.872 267.252 128.651 267.569 128.318C267.897 128.007 268.064 127.514 267.953 127.123C267.739 126.331 267.096 126.032 266.749 125.875C266.372 125.718 266.155 125.668 266.145 125.69Z" fill="#FF9B6C"/>
<path d="M267.087 132.127C267.078 132.11 266.876 132.195 266.672 132.513C266.478 132.819 266.304 133.4 266.566 134.05C266.822 134.686 267.537 135.262 268.442 135.368C269.343 135.479 270.329 135.153 271.132 134.544C271.94 133.929 272.487 133.087 272.733 132.252C272.986 131.412 272.936 130.605 272.779 129.977C272.621 129.343 272.358 128.878 272.148 128.585C271.935 128.294 271.78 128.164 271.763 128.179C271.695 128.218 272.264 128.822 272.505 130.036C272.618 130.634 272.633 131.382 272.383 132.144C272.14 132.904 271.627 133.669 270.891 134.231C270.157 134.789 269.265 135.086 268.483 135.007C267.701 134.935 267.068 134.461 266.822 133.937C266.57 133.406 266.671 132.881 266.809 132.585C266.95 132.278 267.11 132.152 267.087 132.127Z" fill="#FF9B6C"/>
<path d="M271.211 120.581C271.116 120.535 270.782 121.274 271.021 122.195C271.25 123.118 271.898 123.612 271.959 123.527C272.043 123.448 271.601 122.903 271.405 122.099C271.193 121.298 271.322 120.611 271.211 120.581Z" fill="#FF9B6C"/>
<path d="M274.88 110.56C274.843 110.518 274.244 110.985 273.281 111.742C272.206 112.581 270.924 113.58 269.507 114.684C268.073 115.767 266.776 116.747 265.688 117.569C264.707 118.303 264.102 118.76 264.133 118.807C264.162 118.851 264.825 118.475 265.851 117.796C266.877 117.119 268.263 116.136 269.75 114.995C271.236 113.854 272.544 112.771 273.462 111.956C274.382 111.141 274.915 110.599 274.88 110.56Z" fill="#FF9B6C"/>
<path d="M249.095 123.646C249.508 124.646 250.776 125.03 251.86 124.914C252.944 124.797 253.955 124.321 255.028 124.127C258.236 123.55 261.532 125.553 264.708 124.824C265.151 124.722 265.664 124.459 265.658 124.008C265.653 123.591 265.204 123.337 264.818 123.171C261.517 121.748 258.215 120.325 254.914 118.901" fill="#FFC09D"/>
<path d="M254.914 118.901C254.931 118.862 255.328 118.99 256.032 119.254C256.736 119.518 257.748 119.918 258.992 120.424C260.283 120.96 261.749 121.568 263.35 122.232C263.761 122.405 264.18 122.582 264.606 122.762C264.991 122.96 265.583 123.049 265.906 123.719C266.051 124.061 265.893 124.494 265.643 124.698C265.4 124.916 265.131 125.024 264.858 125.1C264.333 125.216 263.812 125.288 263.277 125.286C261.133 125.284 259.258 124.602 257.53 124.391C256.669 124.273 255.845 124.25 255.096 124.374C254.348 124.496 253.653 124.744 252.989 124.907C251.665 125.298 250.417 125.082 249.784 124.607C249.125 124.135 249.07 123.636 249.095 123.646C249.147 123.613 249.284 124.047 249.912 124.405C250.536 124.771 251.618 124.912 252.874 124.49C253.508 124.309 254.196 124.033 255.007 123.876C255.816 123.718 256.701 123.725 257.602 123.833C259.402 124.028 261.287 124.681 263.269 124.675C263.762 124.679 264.249 124.608 264.699 124.513C265.135 124.406 265.45 124.135 265.339 123.923C265.253 123.673 264.798 123.476 264.372 123.297C263.947 123.11 263.531 122.927 263.124 122.748C261.543 122.04 260.094 121.391 258.818 120.82C257.597 120.263 256.612 119.803 255.936 119.472C255.262 119.141 254.896 118.94 254.914 118.901Z" fill="#FF9B6C"/>
<path d="M257.561 130.747C257.591 130.727 257.429 130.399 256.967 130.001C256.513 129.609 255.715 129.166 254.692 129.123L254.82 129.447C255.126 129.159 255.443 128.828 255.745 128.465C257.437 126.447 257.904 124.314 257.803 124.31C257.69 124.265 257.07 126.274 255.438 128.214C255.146 128.565 254.845 128.889 254.555 129.176L254.235 129.493L254.683 129.5C255.601 129.515 256.356 129.871 256.822 130.189C257.294 130.511 257.521 130.78 257.561 130.747Z" fill="#FF9B6C"/>
<path d="M76.2178 156.386L140.088 220.626L11.9778 220.256L76.2178 156.386ZM76.3138 123.28L-43.4072 242.311L195.344 243.001L76.3138 123.28Z" fill="#E1E1E1"/>
<path d="M171.915 227.256L171.4 226.741L175.363 222.795L175.878 223.31L171.915 227.256Z" fill="#ECECEC"/>
<path d="M175.142 230.499L174.628 229.985L178.591 226.039L179.106 226.553L175.142 230.499Z" fill="#ECECEC"/>
<path d="M175.611 237.634L174.916 236.933L182.211 229.671L182.906 230.371L175.611 237.634Z" fill="#ECECEC"/>
<path d="M161.117 216.407L160.602 215.893L164.566 211.947L165.081 212.461L161.117 216.407Z" fill="#ECECEC"/>
<path d="M164.346 219.65L163.831 219.136L167.795 215.19L168.309 215.704L164.346 219.65Z" fill="#ECECEC"/>
<path d="M164.983 226.96L164.288 226.259L171.585 218.997L172.28 219.697L164.983 226.96Z" fill="#ECECEC"/>
<path d="M150.491 205.735L149.977 205.22L153.94 201.274L154.455 201.789L150.491 205.735Z" fill="#ECECEC"/>
<path d="M153.72 208.978L153.205 208.464L157.169 204.518L157.684 205.032L153.72 208.978Z" fill="#ECECEC"/>
<path d="M154.357 216.287L153.662 215.586L160.959 208.321L161.654 209.022L154.357 216.287Z" fill="#ECECEC"/>
<path d="M139.822 195.016L139.307 194.502L143.27 190.556L143.785 191.07L139.822 195.016Z" fill="#ECECEC"/>
<path d="M143.05 198.259L142.536 197.745L146.499 193.799L147.014 194.313L143.05 198.259Z" fill="#ECECEC"/>
<path d="M143.732 205.612L143.036 204.911L150.333 197.646L151.029 198.347L143.732 205.612Z" fill="#ECECEC"/>
<path d="M129.24 184.388L128.725 183.873L132.688 179.928L133.203 180.442L129.24 184.388Z" fill="#ECECEC"/>
<path d="M132.469 187.628L131.954 187.113L135.917 183.17L136.432 183.684L132.469 187.628Z" fill="#ECECEC"/>
<path d="M133.103 194.937L132.408 194.236L139.705 186.971L140.4 187.672L133.103 194.937Z" fill="#ECECEC"/>
<path d="M118.658 173.757L118.143 173.243L122.107 169.297L122.622 169.811L118.658 173.757Z" fill="#ECECEC"/>
<path d="M121.887 177L121.372 176.486L125.336 172.54L125.85 173.054L121.887 177Z" fill="#ECECEC"/>
<path d="M122.478 184.263L121.782 183.562L129.079 176.297L129.775 176.998L122.478 184.263Z" fill="#ECECEC"/>
<path d="M108.077 163.129L107.562 162.614L111.525 158.668L112.04 159.183L108.077 163.129Z" fill="#ECECEC"/>
<path d="M111.305 166.369L110.791 165.855L114.754 161.911L115.269 162.426L111.305 166.369Z" fill="#ECECEC"/>
<path d="M111.852 173.588L111.156 172.887L118.454 165.625L119.149 166.325L111.852 173.588Z" fill="#ECECEC"/>
<path d="M97.495 152.498L96.98 151.983L100.944 148.038L101.458 148.552L97.495 152.498Z" fill="#ECECEC"/>
<path d="M100.723 155.741L100.208 155.226L104.171 151.281L104.686 151.795L100.723 155.741Z" fill="#ECECEC"/>
<path d="M101.226 162.913L100.531 162.212L107.825 154.95L108.521 155.65L101.226 162.913Z" fill="#ECECEC"/>
<path d="M86.9129 141.867L86.3989 141.353L90.3619 137.409L90.8769 137.924L86.9129 141.867Z" fill="#ECECEC"/>
<path d="M90.1415 145.11L89.6265 144.596L93.5905 140.652L94.1055 141.167L90.1415 145.11Z" fill="#ECECEC"/>
<path d="M90.5979 152.238L89.9019 151.537L97.1989 144.275L97.8949 144.975L90.5979 152.238Z" fill="#ECECEC"/>
<path d="M79.9719 141.564L79.2759 140.863L86.5739 133.601L87.2689 134.301L79.9719 141.564Z" fill="#ECECEC"/>
<path d="M-45.7645 332.038C-51.7355 330.485 -55.3175 324.386 -53.7645 318.415L7.03549 84.6196L28.6575 90.2426L-32.1425 324.038C-33.6955 330.009 -39.7935 333.591 -45.7645 332.038Z" fill="#375A64"/>
<path d="M28.6575 90.2426L7.03549 84.6196L4.72936 93.4866C7.12136 97.6056 10.6604 100.929 14.8954 103.098L-39.7026 313.048C-41.2566 319.019 -47.3556 322.6 -53.3256 321.048C-53.6006 320.976 -53.8426 320.849 -54.1066 320.759C-54.3256 325.906 -50.9515 330.688 -45.7645 332.038C-39.7935 333.591 -33.6955 330.009 -32.1425 324.038L28.6575 90.2426Z" fill="black"/>
<path d="M105.167 334.803C99.2339 336.495 93.0529 333.058 91.3599 327.125L23.8599 90.5443L45.3449 84.4153L112.845 320.995C114.537 326.928 111.1 333.11 105.167 334.803Z" fill="#375A64"/>
<path d="M112.845 320.995L45.3449 84.4153L23.8608 90.5445L28.1978 105.746C32.5518 105.39 36.5638 103.913 39.9798 101.618L101.117 315.9C102.81 321.833 99.3719 328.015 93.4398 329.707C93.1618 329.786 92.8848 329.8 92.6068 329.856C95.1578 334.036 100.23 336.211 105.167 334.803C111.1 333.109 114.537 326.928 112.845 320.995Z" fill="black"/>
<path d="M33.5633 64.6343L18.8843 64.5923L18.9793 31.9723C18.9913 27.9193 22.2863 24.6423 26.3393 24.6543C30.3933 24.6663 33.6693 27.9613 33.6583 32.0153L33.5633 64.6343Z" fill="#1A2E35"/>
<path d="M26.3393 24.6543C25.9033 24.6533 25.5267 24.8273 25.1107 24.8993C27.4117 26.1433 29.0277 28.4993 29.0207 31.2993L28.9807 45.0083C28.0917 44.8893 27.2057 44.7583 26.2817 44.7563C23.7097 44.7483 21.2767 45.2433 18.9397 45.9613L18.8857 64.5923L33.5647 64.6333L33.6583 32.0153C33.6703 27.9613 30.3933 24.6663 26.3393 24.6543Z" fill="black"/>
<path d="M50.2013 74.6695C50.1623 88.4135 38.9883 99.5225 25.2453 99.4825C11.5013 99.4425 0.391258 88.2695 0.431259 74.5255C0.47226 60.7815 11.6452 49.6725 25.3893 49.7125C39.1322 49.7525 50.2413 60.9255 50.2013 74.6695Z" fill="#375A64"/>
<path d="M50.2013 74.6695C50.1893 74.6695 50.1729 74.5325 50.1489 74.2665C50.1269 73.9665 50.0979 73.5775 50.0599 73.0865C50.0389 72.5675 49.9889 71.9285 49.8419 71.1825C49.7209 70.4335 49.6059 69.5655 49.3179 68.6215C48.8779 66.7055 47.9779 64.4415 46.5649 62.0435C45.1399 59.6555 43.0859 57.1605 40.2909 55.0425C37.5039 52.9435 33.9889 51.1565 29.9299 50.4305C25.8979 49.7295 21.3459 49.8445 17.0089 51.4815C14.8249 52.2335 12.7189 53.3735 10.7819 54.8135C9.78091 55.4965 8.90591 56.3535 7.98791 57.1765C7.1599 58.0895 6.28891 58.9825 5.57391 60.0185C2.53891 64.0305 0.819916 69.1955 0.755913 74.5235C0.782913 77.1895 1.20491 79.8095 1.99791 82.2785C2.76291 84.7635 4.03291 87.0235 5.48791 89.0595C6.19691 90.1005 7.06291 90.9985 7.88691 91.9165C8.79891 92.7455 9.66991 93.6065 10.6669 94.2965C12.5949 95.7485 14.6949 96.9005 16.8749 97.6655C21.2039 99.3265 25.7559 99.4685 29.7919 98.7905C33.8549 98.0865 37.3809 96.3205 40.1789 94.2375C42.9859 92.1355 45.0549 89.6525 46.4929 87.2725C47.9199 84.8825 48.8319 82.6245 49.2839 80.7115C49.5769 79.7695 49.6959 78.9015 49.8219 78.1535C49.9729 77.4085 50.0259 76.7695 50.0519 76.2505C50.0919 75.7605 50.1229 75.3725 50.1469 75.0715C50.1719 74.8055 50.1893 74.6695 50.2013 74.6695C50.2123 74.6695 50.2169 74.8055 50.2129 75.0725C50.2049 75.3755 50.1949 75.7665 50.1809 76.2595C50.1779 76.7825 50.1439 77.4275 50.0129 78.1815C49.9059 78.9385 49.8059 79.8165 49.5279 80.7735C49.1089 82.7155 48.2219 85.0155 46.8039 87.4585C45.3729 89.8915 43.2969 92.4375 40.4549 94.6025C37.6239 96.7475 34.0369 98.5755 29.8889 99.3185C25.7679 100.036 21.1119 99.9105 16.6699 98.2255C14.4339 97.4485 12.2779 96.2755 10.2979 94.7925C9.27391 94.0865 8.37891 93.2085 7.44191 92.3585C6.59491 91.4205 5.70691 90.4995 4.97591 89.4335C3.4789 87.3485 2.17491 85.0285 1.38691 82.4805C0.569908 79.9465 0.13591 77.2555 0.10791 74.5215C0.151909 71.7865 0.602905 69.0995 1.43391 66.5715C2.23691 64.0285 3.55591 61.7175 5.06391 59.6415C5.80091 58.5805 6.69392 57.6655 7.54691 56.7325C8.48792 55.8885 9.38891 55.0145 10.4149 54.3155C12.4039 52.8445 14.5669 51.6835 16.8059 50.9205C21.2579 49.2605 25.9149 49.1625 30.0299 49.9035C34.1739 50.6695 37.7499 52.5185 40.5689 54.6795C43.3979 56.8605 45.4599 59.4185 46.8769 61.8595C48.2809 64.3105 49.1549 66.6155 49.5629 68.5605C49.8349 69.5195 49.9309 70.3985 50.0329 71.1555C50.1599 71.9105 50.1889 72.5565 50.1909 73.0795C50.2009 73.5725 50.2089 73.9635 50.2159 74.2665C50.2179 74.5325 50.2123 74.6695 50.2013 74.6695Z" fill="#1A2E35"/>
<path d="M39.5899 73.8979C39.5679 81.7019 33.1589 88.0099 25.2779 87.9869C17.3969 87.9639 11.0259 81.6189 11.0479 73.8149C11.0699 66.0119 17.4789 59.7039 25.3599 59.7269C33.2409 59.7499 39.6119 66.0939 39.5899 73.8979Z" fill="#1A2E35"/>
<path d="M38.4334 284.036H-50.5346C-64.1816 284.036 -75.2466 272.973 -75.2466 259.324C-75.2466 245.676 -64.1816 234.612 -50.5346 234.612H38.4334V284.036Z" fill="#4C269D"/>
<path d="M212.77 242.816H13.8105V234.611H212.77C214.388 234.611 215.7 235.922 215.7 237.541V239.886C215.7 241.504 214.388 242.816 212.77 242.816Z" fill="#4C269D"/>
<path d="M212.77 284.036H13.8105V275.831H212.77C214.388 275.831 215.7 277.143 215.7 278.761V281.106C215.7 282.724 214.388 284.036 212.77 284.036Z" fill="#4C269D"/>
<path d="M209.677 275.831H36.3395C27.2225 275.831 19.8315 268.44 19.8315 259.324C19.8315 250.207 27.2225 242.816 36.3395 242.816H209.677C205.029 253.821 205.029 264.826 209.677 275.831Z" fill="#F5F5F5"/>
<path d="M188.617 260.856C188.617 261.019 153.039 261.152 109.161 261.152C65.2673 261.152 29.6963 261.019 29.6963 260.856C29.6963 260.693 65.2673 260.56 109.161 260.56C153.039 260.56 188.617 260.693 188.617 260.856Z" fill="#1A2E35"/>
<path d="M204.971 268.194C204.971 268.357 169.393 268.49 125.514 268.49C81.6208 268.49 46.0498 268.357 46.0498 268.194C46.0498 268.031 81.6208 267.899 125.514 267.899C169.393 267.899 204.971 268.031 204.971 268.194Z" fill="#1A2E35"/>
<path d="M200.149 250.45C200.149 250.613 164.571 250.746 120.693 250.746C76.7985 250.746 41.2275 250.613 41.2275 250.45C41.2275 250.287 76.7985 250.154 120.693 250.154C164.571 250.154 200.149 250.287 200.149 250.45Z" fill="#1A2E35"/>
<path d="M93.3135 250.664V270.458L100.174 266.059L107.828 270.458V250.664H93.3135Z" fill="#7473DB"/>
<path d="M88.3674 227.384C87.9574 227.702 84.3264 232.272 83.2304 235.01C82.1364 237.749 82.4604 242.201 82.4214 244.794C82.3814 247.387 83.6864 247.975 84.8944 247.911C86.1014 247.849 85.7014 242.251 85.7014 242.251C85.7014 242.251 87.8974 257.683 90.5004 257.073C93.1024 256.465 92.5324 256.699 92.5324 256.699C92.5324 256.699 92.5574 260.347 94.9134 259.978C97.2694 259.608 96.4974 257.084 96.4974 257.084C96.4974 257.084 98.9124 258.174 99.6804 255.673C100.446 253.173 100.409 245.002 100.409 245.002L105.008 241.005L105.846 236.103C105.846 236.103 104.393 231.886 102.112 228.085C100.993 226.218 106.049 204.551 106.049 204.551L108.973 192.416L91.8574 187.816L88.3674 227.384Z" fill="#FFC09D"/>
<path d="M19.8319 284.036H-50.4581C-64.1481 284.036 -75.2461 272.938 -75.2461 259.248C-75.2461 245.641 -64.2161 234.612 -50.6091 234.612H21.7129C3.8179 245.452 5.15491 271.413 19.8319 284.036Z" fill="black"/>
<path d="M11.1297 280.572C11.1297 280.736 -5.52425 280.868 -26.0633 280.868C-46.6093 280.868 -63.2603 280.736 -63.2603 280.572C-63.2603 280.409 -46.6093 280.277 -26.0633 280.277C-5.52425 280.277 11.1297 280.409 11.1297 280.572Z" fill="#1A2E35"/>
<path d="M11.1297 238.713C11.1297 238.877 -5.52425 239.009 -26.0633 239.009C-46.6093 239.009 -63.2603 238.877 -63.2603 238.713C-63.2603 238.55 -46.6093 238.418 -26.0633 238.418C-5.52425 238.418 11.1297 238.55 11.1297 238.713Z" fill="#1A2E35"/>
<path d="M29.5743 382.381H-92.9737C-106.148 382.381 -116.827 371.701 -116.827 358.527V342.583C-116.827 329.409 -106.148 318.73 -92.9747 318.73H29.5743V382.381Z" fill="#4C269D"/>
<path d="M254.935 329.296H-2.13623V318.73H254.935C256.553 318.73 257.865 320.041 257.865 321.659V326.367C257.865 327.984 256.553 329.296 254.935 329.296Z" fill="#4C269D"/>
<path d="M254.935 382.381H-2.13623V371.815H254.935C256.553 371.815 257.865 373.126 257.865 374.744V379.451C257.865 381.069 256.553 382.381 254.935 382.381Z" fill="#4C269D"/>
<path d="M250.109 371.815H26.8781C15.1361 371.815 5.61914 362.296 5.61914 350.556C5.61914 338.815 15.1361 329.296 26.8781 329.296H250.109C244.123 343.469 244.123 357.642 250.109 371.815Z" fill="#F5F5F5"/>
<path d="M5.61934 382.381H-85.3427C-102.732 382.381 -116.827 368.285 -116.827 350.897C-116.827 333.132 -102.426 318.73 -84.6607 318.73H8.04134C-15.0047 332.691 -13.2827 366.124 5.61934 382.381Z" fill="black"/>
<path d="M67.594 318.962H-33.132C-43.195 318.962 -51.353 310.804 -51.353 300.739C-51.353 290.676 -43.195 282.518 -33.132 282.518H67.594V318.962Z" fill="#375A64"/>
<path d="M250.007 291.103H41.8286V282.518H250.007C251.7 282.518 253.072 283.891 253.072 285.583V288.038C253.072 289.731 251.7 291.103 250.007 291.103Z" fill="#375A64"/>
<path d="M250.007 318.962H41.8286V310.377H250.007C251.7 310.377 253.072 311.749 253.072 313.442V315.897C253.072 317.589 251.7 318.962 250.007 318.962Z" fill="#375A64"/>
<path d="M246.771 310.378H57.7664C52.4444 310.378 48.1294 306.062 48.1294 300.74C48.1294 295.418 52.4444 291.104 57.7664 291.104H246.771C241.908 297.528 241.908 303.953 246.771 310.378Z" fill="#F5F5F5"/>
<path d="M224.736 299.222C224.736 299.386 187.508 299.518 141.597 299.518C95.6712 299.518 58.4512 299.386 58.4512 299.222C58.4512 299.059 95.6712 298.927 141.597 298.927C187.508 298.927 224.736 299.059 224.736 299.222Z" fill="#1A2E35"/>
<path d="M241.846 304.41C241.846 304.574 204.62 304.706 158.708 304.706C112.781 304.706 75.5625 304.574 75.5625 304.41C75.5625 304.247 112.781 304.115 158.708 304.115C204.62 304.115 241.846 304.247 241.846 304.41Z" fill="#1A2E35"/>
<path d="M48.13 318.962H-33.278C-43.261 318.962 -51.353 310.869 -51.353 300.886C-51.353 290.741 -43.13 282.518 -32.985 282.518H50.099C31.374 290.511 32.774 309.653 48.13 318.962Z" fill="black"/>
<path d="M39.0245 315.338C39.0245 315.501 21.5985 315.634 0.108475 315.634C-21.3895 315.634 -38.8115 315.501 -38.8115 315.338C-38.8115 315.175 -21.3895 315.042 0.108475 315.042C21.5985 315.042 39.0245 315.175 39.0245 315.338Z" fill="#1A2E35"/>
<path d="M39.0245 286.811C39.0245 286.974 21.5985 287.106 0.108475 287.106C-21.3895 287.106 -38.8115 286.974 -38.8115 286.811C-38.8115 286.648 -21.3895 286.515 0.108475 286.515C21.5985 286.515 39.0245 286.648 39.0245 286.811Z" fill="#1A2E35"/>
<path d="M250.592 282.518C250.592 282.681 186.669 282.814 107.835 282.814C28.973 282.814 -34.936 282.681 -34.936 282.518C-34.936 282.355 28.973 282.223 107.835 282.223C186.669 282.223 250.592 282.355 250.592 282.518Z" fill="#1A2E35"/>
<path d="M222.987 352.529C222.987 352.693 177.168 352.825 120.66 352.825C64.1323 352.825 18.3223 352.693 18.3223 352.529C18.3223 352.367 64.1323 352.234 120.66 352.234C177.168 352.234 222.987 352.367 222.987 352.529Z" fill="#1A2E35"/>
<path d="M244.048 361.98C244.048 362.143 198.229 362.275 141.721 362.275C85.1928 362.275 39.3828 362.143 39.3828 361.98C39.3828 361.817 85.1928 361.684 141.721 361.684C198.229 361.684 244.048 361.817 244.048 361.98Z" fill="#1A2E35"/>
<path d="M237.838 343.76C237.838 343.923 192.019 344.055 135.511 344.055C78.9828 344.055 33.1729 343.923 33.1729 343.76C33.1729 343.597 78.9828 343.464 135.511 343.464C192.019 343.464 237.838 343.597 237.838 343.76Z" fill="#1A2E35"/>
<path d="M214.014 334.523C213.436 335.689 198.665 368.752 198.665 368.752L183.043 363.363L192.44 327.24L214.014 334.523Z" fill="#FFC09D"/>
<path d="M184.671 355.485C184.671 355.485 194.068 368.611 202.731 363.043L203.027 367.291L200.998 396.129C200.866 397.995 199.415 399.602 197.546 399.679C196.107 399.738 194.806 398.976 194.163 397.738C190.724 391.102 178.193 366.631 179.219 364.251L181.527 357.794C182.006 356.455 183.25 355.541 184.671 355.485Z" fill="#7473DB"/>
<path d="M196.873 399.646L179.987 361.993L179.505 363.411C178.842 364.899 179.303 365.737 179.692 366.971C180.847 370.628 184.578 379.208 194.061 397.704C194.613 398.78 195.672 399.512 196.873 399.646Z" fill="white"/>
<path d="M194.202 382.423C194.359 382.58 195.711 381.084 198.021 380.819C200.324 380.486 202.013 381.586 202.125 381.394C202.181 381.321 201.847 380.917 201.101 380.54C200.364 380.162 199.195 379.887 197.922 380.05C196.649 380.217 195.589 380.781 194.973 381.337C194.348 381.892 194.128 382.368 194.202 382.423Z" fill="#1A2E35"/>
<path d="M195.061 387.715C195.17 387.914 196.615 387.192 198.514 387.285C200.415 387.336 201.8 388.166 201.925 387.977C202.08 387.838 200.711 386.58 198.543 386.51C196.377 386.415 194.916 387.566 195.061 387.715Z" fill="#1A2E35"/>
<path d="M191.721 375.17C191.824 375.382 194.039 374.26 197.005 374.147C199.971 373.986 202.28 374.899 202.363 374.679C202.478 374.52 200.151 373.208 196.97 373.371C193.789 373.502 191.591 375.022 191.721 375.17Z" fill="#1A2E35"/>
<path d="M185.353 359.125C185.994 359.99 185.836 361.352 184.999 362.027C184.161 362.703 182.775 362.555 182.119 361.701C181.463 360.848 181.602 359.208 182.51 358.63C183.418 358.052 185.036 358.315 185.468 359.301" fill="white"/>
<path d="M193.899 366.93C193.92 367.161 196.032 367.018 198.466 367.75C200.912 368.449 202.611 369.708 202.753 369.526C202.902 369.394 201.311 367.762 198.685 367.005C196.066 366.225 193.846 366.739 193.899 366.93Z" fill="#1A2E35"/>
<path d="M199.86 368.15C199.904 368.157 200.052 367.699 200.103 366.835C200.151 365.976 200.089 364.693 199.565 363.215C199.284 362.509 199.013 361.616 198.106 361.011C197.655 360.707 196.919 360.689 196.435 361.091C195.958 361.48 195.743 362.036 195.649 362.588C195.357 364.813 196.944 367.242 199.393 367.93C201.859 368.577 204.34 367.482 205.617 365.712C205.908 365.249 206.148 364.663 205.964 364.032C205.786 363.395 205.111 363.053 204.597 363.065C203.536 363.066 202.792 363.567 202.117 363.921C200.768 364.712 199.872 365.62 199.328 366.284C198.782 366.954 198.575 367.387 198.612 367.413C198.721 367.522 199.75 365.826 202.382 364.401C203.04 364.081 203.805 363.667 204.563 363.708C204.932 363.725 205.225 363.917 205.311 364.23C205.403 364.532 205.265 364.96 205.018 365.322C203.947 366.765 201.675 367.761 199.6 367.182C197.53 366.623 196.138 364.485 196.356 362.693C196.416 362.262 196.593 361.846 196.861 361.625C197.125 361.407 197.479 361.389 197.783 361.567C198.423 361.942 198.769 362.744 199.052 363.411C200.145 366.196 199.699 368.162 199.86 368.15Z" fill="#1A2E35"/>
<path d="M201.244 330.552C201.572 331.813 212.081 366.466 212.081 366.466L196.749 372.632L180.176 339.188L201.244 330.552Z" fill="#FFC09D"/>
<path d="M192.815 365.615C192.815 365.615 208.516 369.372 211.41 359.49L214.418 362.504L231.783 385.617C232.907 387.113 232.863 389.278 231.502 390.561C230.453 391.55 228.971 391.827 227.674 391.311C220.728 388.553 195.226 378.279 194.441 375.81L191.954 369.421C191.438 368.095 191.779 366.59 192.815 365.615Z" fill="#7473DB"/>
<path d="M230.972 390.977L193.542 373.601L194.107 374.988C194.581 376.546 195.479 376.877 196.581 377.554C199.851 379.56 208.291 383.595 227.576 391.353C228.697 391.804 229.977 391.664 230.972 390.977Z" fill="white"/>
<path d="M217.668 379.718C217.891 379.734 217.931 377.718 219.503 376.003C221.023 374.242 223.02 373.968 222.979 373.748C222.975 373.656 222.456 373.571 221.647 373.775C220.842 373.972 219.778 374.53 218.923 375.488C218.071 376.447 217.641 377.569 217.539 378.392C217.431 379.22 217.576 379.725 217.668 379.718Z" fill="#1A2E35"/>
<path d="M221.785 383.154C221.998 383.232 222.615 381.74 224.111 380.566C225.581 379.358 227.171 379.078 227.14 378.852C227.168 378.647 225.308 378.593 223.625 379.961C221.928 381.308 221.578 383.134 221.785 383.154Z" fill="#1A2E35"/>
<path d="M211.041 375.866C211.258 375.959 212.196 373.66 214.362 371.63C216.498 369.566 218.84 368.742 218.758 368.521C218.74 368.325 216.123 368.86 213.827 371.067C211.51 373.251 210.846 375.839 211.041 375.866Z" fill="#1A2E35"/>
<path d="M195.717 367.918C196.767 368.151 197.54 369.282 197.351 370.342C197.16 371.401 196.017 372.198 194.961 371.983C193.907 371.769 192.937 370.439 193.244 369.406C193.552 368.375 194.946 367.514 195.919 367.975" fill="white"/>
<path d="M207.287 368.213C207.455 368.374 208.956 366.882 211.274 365.84C213.579 364.765 215.689 364.603 215.677 364.371C215.702 364.175 213.431 363.984 210.951 365.134C208.462 366.26 207.122 368.104 207.287 368.213Z" fill="#1A2E35"/>
<path d="M212.589 365.229C212.627 365.206 212.439 364.761 211.91 364.076C211.385 363.396 210.497 362.467 209.132 361.694C208.457 361.345 207.668 360.847 206.586 360.985C206.046 361.05 205.479 361.52 205.376 362.141C205.271 362.748 205.472 363.308 205.763 363.787C207 365.659 209.791 366.453 212.092 365.369C214.378 364.241 215.535 361.788 215.341 359.615C215.256 359.074 215.054 358.473 214.501 358.118C213.95 357.753 213.215 357.938 212.835 358.283C212.034 358.98 211.801 359.845 211.523 360.555C211.022 362.036 210.94 363.309 210.965 364.167C210.99 365.032 211.118 365.495 211.163 365.49C211.318 365.5 210.983 363.545 212.037 360.744C212.324 360.071 212.631 359.256 213.231 358.791C213.522 358.562 213.867 358.515 214.138 358.695C214.405 358.863 214.581 359.277 214.632 359.711C214.769 361.504 213.705 363.745 211.758 364.667C209.828 365.602 207.376 364.899 206.366 363.402C206.129 363.039 205.99 362.607 206.048 362.264C206.104 361.927 206.36 361.681 206.706 361.618C207.435 361.482 208.223 361.86 208.873 362.178C211.525 363.566 212.476 365.342 212.589 365.229Z" fill="#1A2E35"/>
<path d="M114.722 239.852C115.339 239.861 152.031 268.964 154.045 271.877C156.06 274.79 157.191 295.188 163.49 314.224C169.788 333.26 190.163 360.746 190.163 360.746L209.19 355.064C209.19 355.064 193.732 274.951 190.019 261.924C186.305 248.898 175.931 227.123 175.931 227.123L168.073 215.887L166.952 197.328L115.242 196.35C114.624 196.34 105.417 212.41 107.368 227.522C108.358 235.183 114.722 239.852 114.722 239.852Z" fill="#1A2E35"/>
<path d="M231.004 233.725C226.697 219.042 197.15 198.682 197.15 198.682L192.131 197.518L161.808 197.058C161.808 197.058 162.587 211.069 162.577 211.686C162.568 212.304 176.472 245.661 176.472 245.661L195.214 258.709L198.45 262.464C198.45 262.464 193.687 277.769 192.272 289.751C190.857 301.734 191.539 337.914 191.539 337.914L212.275 341.729C212.275 341.729 229.576 287.024 231.566 277.996C233.556 268.968 235.31 248.408 231.004 233.725Z" fill="#1A2E35"/>
<path d="M150.447 204.081C150.46 204.038 150.905 204.11 151.691 204.322C152.475 204.535 153.6 204.893 154.945 205.456C155.617 205.739 156.343 206.073 157.107 206.465C157.861 206.837 158.703 207.324 159.451 207.928C160.217 208.511 160.996 209.137 161.835 209.723C162.256 210.009 162.691 210.29 163.145 210.507C163.372 210.61 163.602 210.697 163.817 210.73C164.045 210.755 164.156 210.742 164.38 210.615C165.207 210.089 165.875 209.188 166.619 208.443C167.419 207.673 168.268 207.179 169.038 206.577C170.562 205.392 172.083 204.538 173.373 203.866C174.669 203.199 175.757 202.745 176.519 202.462C177.282 202.18 177.718 202.065 177.734 202.107C177.776 202.211 176.11 202.878 173.607 204.297C172.363 205.016 170.892 205.9 169.415 207.095C168.688 207.683 167.798 208.235 167.105 208.919C166.384 209.64 165.77 210.539 164.727 211.217C164.482 211.385 164.028 211.484 163.716 211.417C163.392 211.364 163.115 211.253 162.852 211.133C162.336 210.884 161.882 210.583 161.445 210.281C160.583 209.667 159.804 209.023 159.058 208.435C158.324 207.822 157.595 207.38 156.837 206.974C156.097 206.567 155.395 206.212 154.746 205.906C152.14 204.688 150.415 204.189 150.447 204.081Z" fill="#375A64"/>
<path d="M209.19 355.064C209.178 355.067 209.139 354.938 209.077 354.686C209.009 354.395 208.922 354.026 208.815 353.563C208.587 352.525 208.271 351.076 207.869 349.234C207.057 345.419 205.901 339.986 204.477 333.293C201.601 319.835 197.687 301.229 193.017 280.762C190.647 270.538 188.406 260.776 185.811 252.08C184.548 247.752 182.313 243.992 180.497 240.393C178.613 236.816 176.8 233.513 175.142 230.499C171.804 224.526 169.095 219.678 167.193 216.274C166.272 214.629 165.547 213.335 165.029 212.408C164.802 211.991 164.621 211.657 164.478 211.395C164.357 211.165 164.3 211.044 164.311 211.038C164.321 211.032 164.399 211.141 164.54 211.359C164.698 211.612 164.899 211.935 165.15 212.337C165.696 213.249 166.459 214.522 167.427 216.139C169.385 219.453 172.193 224.263 175.572 230.26C177.257 233.26 179.097 236.551 181.005 240.123C181.96 241.909 182.929 243.765 183.903 245.693C184.898 247.6 185.741 249.703 186.422 251.886C189.065 260.623 191.322 270.374 193.695 280.607C198.367 301.085 202.206 319.708 204.959 333.192C206.292 339.905 207.374 345.355 208.133 349.179C208.482 351.033 208.755 352.491 208.952 353.536C209.032 354.003 209.096 354.377 209.146 354.672C209.186 354.929 209.202 355.062 209.19 355.064Z" fill="#375A64"/>
<path d="M237.279 127.194L219.165 137.654C219.165 137.654 213.317 124.996 207.564 108.425C201.267 90.2853 192.633 90.1543 192.633 90.1543L187.258 130.027L192.822 145.579C192.822 145.579 201.375 162.449 205.879 164.571C221.71 172.03 249.933 143.265 249.933 143.265L237.279 127.194Z" fill="#4C269D"/>
<path d="M202.752 132.445C204.706 122.108 205.598 105.16 200.166 95.8634C199.005 93.8764 194.426 90.1254 192.285 89.2814C186.662 87.0644 173.809 83.5684 173.291 83.0344C172.665 82.3894 150.412 82.3884 143.546 82.4014C142.658 82.4034 142.965 82.4804 142.965 82.4804L126.29 88.7684C123.597 89.9014 121.949 92.6494 122.219 95.5584L125.909 135.385C125.909 135.385 127.304 149.337 127.429 152.911C127.553 156.485 125.152 161.628 125.152 161.628C123.241 165.98 118.064 179.587 114.634 188.686C113.027 192.945 116.052 197.528 120.6 197.734L194.468 198.418C198.214 198.587 199.959 198.473 199.224 194.797C197.589 186.625 194.289 185.476 193.822 179.461C193.225 171.772 196.426 149.138 196.613 148.605C196.8 148.071 200.228 145.802 202.752 132.445Z" fill="#4C269D"/>
<path d="M189.214 186.994C189.22 187.041 188.431 187.183 186.996 187.398C185.563 187.619 183.481 187.88 180.901 188.15C175.745 188.695 168.588 189.187 160.67 189.219C152.751 189.243 145.589 188.802 140.429 188.294C137.848 188.042 135.764 187.796 134.329 187.585C132.894 187.38 132.104 187.244 132.11 187.197C132.115 187.149 132.916 187.194 134.36 187.316C135.92 187.441 137.98 187.605 140.47 187.804C145.63 188.186 152.773 188.548 160.668 188.524C168.561 188.492 175.699 188.079 180.858 187.661C183.346 187.444 185.404 187.265 186.964 187.129C188.406 186.997 189.208 186.946 189.214 186.994Z" fill="#1A2E35"/>
<path d="M192.485 106.022C192.518 105.997 192.972 106.51 193.711 107.506C194.451 108.5 195.443 110.001 196.497 111.956C198.613 115.84 200.817 121.722 201.332 128.519C201.853 135.318 200.566 141.466 199.063 145.626C198.318 147.719 197.564 149.352 196.983 150.446C196.405 151.543 196.034 152.119 195.997 152.099C195.949 152.073 196.239 151.454 196.74 150.33C197.242 149.206 197.92 147.558 198.597 145.469C199.965 141.314 201.151 135.256 200.639 128.572C200.132 121.889 198.043 116.081 196.06 112.181C195.074 110.22 194.155 108.693 193.488 107.659C192.823 106.623 192.441 106.054 192.485 106.022Z" fill="#1A2E35"/>
<path d="M125.007 89.5063C125.007 89.5063 109.194 95.3023 105.8 118.826C102.406 142.35 95.9948 160.394 93.3138 174.642C91.2198 185.767 87.1938 220.884 87.1938 220.884L103.461 223.909L121.446 158.714L126.137 137.701L129.702 120.797L125.007 89.5063Z" fill="#4C269D"/>
<path d="M120.887 114.85C121.075 114.81 122.613 121.242 124.322 129.215C126.031 137.191 127.264 143.687 127.076 143.728C126.889 143.768 125.351 137.337 123.642 129.361C121.933 121.388 120.7 114.891 120.887 114.85Z" fill="#1A2E35"/>
<path d="M152.682 15.2642C149.755 13.4062 149.048 9.09715 150.634 6.01415C152.22 2.93215 155.585 1.06015 159.008 0.508152C163.961 -0.290848 169.257 1.46415 172.753 5.06315C174.642 7.00815 176.172 9.54515 178.733 10.4362C180.984 11.2202 183.474 10.5132 185.837 10.8192C189.006 11.2292 191.722 13.4822 193.347 16.2332C194.972 18.9842 195.641 22.1922 196.017 25.3652C196.362 28.2772 196.589 31.4732 198.609 33.5982C200.579 35.6702 203.692 36.1092 206.141 37.5842C210.75 40.3572 212.245 47.2282 209.203 51.6662C208.234 53.0802 206.841 54.3782 206.729 56.0902C206.626 57.6522 207.636 59.0442 208.11 60.5372C209.327 64.3801 206.18 68.9472 202.156 69.1782C200.123 69.2952 197.946 68.5032 196.124 69.4112C194.315 70.3142 193.641 72.4962 192.484 74.1542C190.207 77.4152 185.445 78.6451 181.874 76.8941C180.379 76.1611 178.968 74.9511 177.307 75.0631C175.649 75.1751 174.344 76.5901 172.713 76.9062C170.578 77.3182 168.55 75.7451 167.281 73.9801C166.011 72.2141 165.126 70.1341 163.5 68.6881C161.373 66.7962 158.383 66.3282 155.691 65.4012C149.748 63.3542 144.782 58.6382 142.432 52.8082C140.081 46.9781 140.388 40.1372 143.25 34.5402" fill="#1A2E35"/>
<path d="M183.646 53.5317C184.253 52.8767 185.126 52.2647 186.021 51.9687L185.839 51.9577C186.006 51.9117 186.177 51.8927 186.348 51.8717C187.002 51.7167 187.653 51.7497 188.204 52.1007L188.186 52.0997C189.203 52.4737 190.099 53.2197 190.589 54.1917C191.443 55.8837 191.125 58.0427 189.977 59.5497C188.978 60.8597 187.261 61.7177 185.661 61.3287C184.191 60.9727 183.1 59.6387 182.684 58.1847C182.228 56.5927 182.519 54.7457 183.646 53.5317Z" fill="#7473DB"/>
<path d="M144.845 81.2774L141.919 27.5683C141.798 25.0553 143.62 22.8674 146.114 22.5314L171.637 15.3033C179.845 14.1993 185.607 24.1814 186.363 32.4294C187.201 41.5914 187.865 52.8123 186.971 59.6923C185.176 73.5274 173.841 75.6214 173.841 75.6214C173.836 75.5754 173.758 79.1024 173.841 84.1084L168.632 101.128L144.845 81.2774Z" fill="#FFC09D"/>
<path d="M182.806 44.834C182.866 45.766 182.126 46.584 181.154 46.664C180.184 46.744 179.348 46.056 179.287 45.123C179.229 44.191 179.968 43.372 180.939 43.292C181.91 43.212 182.747 43.902 182.806 44.834Z" fill="#1A2E35"/>
<path d="M184.092 38.3399C183.88 38.5769 182.513 37.6249 180.613 37.6829C178.713 37.7149 177.346 38.7329 177.133 38.5059C177.03 38.4049 177.24 37.9839 177.835 37.5239C178.42 37.0669 179.428 36.6099 180.613 36.5809C181.796 36.5539 182.805 36.9619 183.39 37.3909C183.988 37.8229 184.197 38.2339 184.092 38.3399Z" fill="#1A2E35"/>
<path d="M172.717 53.125C172.705 53.018 173.881 52.779 175.788 52.48C176.273 52.417 176.729 52.307 176.802 51.974C176.906 51.619 176.689 51.103 176.437 50.544C175.947 49.383 175.435 48.165 174.897 46.889C172.754 41.684 171.188 37.398 171.399 37.314C171.609 37.229 173.517 41.38 175.659 46.585C176.175 47.869 176.669 49.093 177.14 50.264C177.339 50.81 177.673 51.427 177.446 52.162C177.325 52.528 176.976 52.801 176.667 52.894C176.359 52.998 176.086 53.011 175.846 53.032C173.923 53.19 172.728 53.233 172.717 53.125Z" fill="#1A2E35"/>
<path d="M165.461 45.1045C165.521 46.0365 164.78 46.8545 163.809 46.9355C162.839 47.0145 162.002 46.3255 161.942 45.3945C161.884 44.4625 162.623 43.6425 163.594 43.5625C164.565 43.4825 165.402 44.1725 165.461 45.1045Z" fill="#1A2E35"/>
<path d="M165.419 39.2256C165.206 39.4616 163.838 38.5106 161.94 38.5686C160.04 38.6006 158.673 39.6186 158.46 39.3916C158.357 39.2906 158.565 38.8696 159.162 38.4096C159.747 37.9526 160.755 37.4956 161.94 37.4656C163.123 37.4386 164.131 37.8466 164.717 38.2766C165.313 38.7086 165.523 39.1196 165.419 39.2256Z" fill="#1A2E35"/>
<path d="M173.841 75.6214C173.841 75.6214 165.421 76.4406 156.085 71.1836C156.085 71.1836 160.071 81.4276 173.82 79.7466L173.841 75.6214Z" fill="#FF9B6C"/>
<path d="M172.565 57.6525C171.608 56.3785 170.084 55.6245 168.656 55.7195C167.667 55.7855 166.71 56.2715 166.194 57.1515C165.678 58.0305 165.684 59.3205 166.327 60.2215C167.049 61.2365 168.376 61.5335 169.443 61.2435C170.509 60.9525 171.375 60.1925 172.192 59.4335C172.419 59.2235 172.648 59.0035 172.773 58.7045C172.897 58.4065 172.889 58.0075 172.671 57.7425" fill="#FF9B6C"/>
<path d="M167.161 54.5987C167.47 54.5717 167.532 56.6347 169.34 58.0497C171.144 59.4687 173.337 59.1747 173.361 59.4617C173.393 59.5907 172.883 59.8767 171.955 59.9286C171.046 59.9856 169.708 59.7307 168.601 58.8657C167.499 57.9986 167.002 56.8127 166.907 55.9687C166.804 55.1087 167.019 54.5907 167.161 54.5987Z" fill="#1A2E35"/>
<path d="M166.036 31.377C165.863 31.899 163.959 31.708 161.737 32.04C159.508 32.327 157.728 33.031 157.419 32.576C157.281 32.358 157.58 31.863 158.293 31.342C159 30.822 160.136 30.315 161.471 30.127C162.806 29.943 164.037 30.121 164.858 30.428C165.686 30.735 166.109 31.129 166.036 31.377Z" fill="#1A2E35"/>
<path d="M183.237 31.8179C182.916 32.2589 181.593 31.8489 180.018 31.8719C178.442 31.8399 177.119 32.2449 176.799 31.8019C176.658 31.5869 176.856 31.1479 177.426 30.7229C177.99 30.2989 178.94 29.9389 180.023 29.9409C181.106 29.9449 182.054 30.3089 182.614 30.7359C183.183 31.1639 183.379 31.6029 183.237 31.8179Z" fill="#1A2E35"/>
<path d="M195.647 29.5352C195.006 27.4722 193.826 25.5032 192.015 24.3232C191.022 23.6772 189.87 23.2832 188.949 22.5392C186.959 20.9322 186.498 18.1362 185.268 15.8922C183.684 13.0012 180.624 10.9712 177.344 10.6362C174.615 10.3562 171.802 11.1762 169.142 10.5052C167.176 10.0092 165.459 8.73224 163.466 8.35424C159.586 7.61724 155.98 10.4012 153.167 13.1732C153.157 15.9502 155.369 17.8072 157.499 19.5902C159.628 21.3722 162.566 22.1472 165.297 21.6482C167.417 21.2602 169.74 20.1892 171.575 21.3182C173.504 22.5062 173.584 25.4142 175.295 26.9002C177.741 29.0232 181.629 27.0312 184.734 27.9522C187.132 28.6632 188.629 30.9552 190.222 32.8832C191.816 34.8112 194.202 36.6442 196.599 35.9322C196.446 33.7772 196.289 31.5982 195.647 29.5352Z" fill="#1A2E35"/>
<path d="M166.516 17.7968C164.777 17.2988 161.218 16.1728 160.286 14.6648C158.259 11.3878 154.687 9.15079 151.037 9.35079C147.388 9.54979 143.884 12.4318 143.138 16.2858C138.722 16.3188 134.413 19.0928 132.293 23.2668C132.029 23.7888 131.799 24.3298 131.606 24.8848C130.23 27.3048 129.965 30.3408 130.963 32.9438C131.565 34.5148 132.59 36.2618 131.782 37.7368C130.959 39.2388 128.881 39.2858 127.262 39.8438C124.446 40.8138 122.62 44.0508 123.247 46.9628C123.472 48.0078 123.972 49.0508 123.754 50.0978C123.528 51.1868 122.595 51.9568 121.879 52.8078C120.1 54.9218 119.549 58.0028 120.487 60.6028C121.423 63.2028 123.811 65.2238 126.531 65.7178C127.768 65.9428 129.109 65.8918 130.18 66.5508C131.409 67.3068 131.946 68.7838 132.812 69.9368C134.474 72.1468 137.601 73.1258 140.226 72.2578C140.758 72.0818 141.251 71.8178 141.716 71.5088C142.545 72.6578 143.845 73.4368 146.07 73.4368L145.559 44.3958C145.835 45.0078 146.367 45.5598 147.319 45.7748C151.98 46.8288 152.662 37.2248 151.621 34.6208C153.307 33.1238 155.012 31.6058 156.298 29.7038C157.584 27.8008 158.717 22.6148 158.444 20.2798C160.123 20.3788 167.28 18.0158 166.516 17.7968Z" fill="#1A2E35"/>
<path d="M146.842 46.7579C146.695 43.8059 143.083 43.1749 140.525 44.6539C139.119 45.4659 138.045 47.0979 138.174 50.2319C138.519 58.5889 146.837 56.5189 146.842 56.2789C146.845 56.1309 147.015 50.2139 146.842 46.7579Z" fill="#FFC09D"/>
<path d="M144.158 53.2182C144.121 53.1932 144.017 53.3262 143.776 53.4492C143.54 53.5692 143.131 53.6612 142.688 53.5162C141.793 53.2282 140.991 51.8582 140.888 50.3532C140.836 49.5932 140.966 48.8632 141.211 48.2522C141.44 47.6302 141.817 47.1872 142.26 47.0902C142.697 46.9692 143.023 47.2222 143.135 47.4532C143.257 47.6822 143.21 47.8512 143.255 47.8642C143.279 47.8842 143.429 47.7162 143.347 47.3742C143.305 47.2092 143.2 47.0162 142.997 46.8642C142.79 46.7092 142.491 46.6382 142.183 46.6842C141.541 46.7552 140.985 47.3722 140.716 48.0422C140.411 48.7172 140.248 49.5392 140.306 50.3922C140.429 52.0742 141.356 53.6142 142.579 53.9142C143.174 54.0432 143.656 53.8452 143.901 53.6382C144.152 53.4212 144.188 53.2322 144.158 53.2182Z" fill="#FF9B6C"/>
<path d="M155.01 15.5405C155.072 15.6295 154.167 15.7795 153.342 16.9365C152.515 18.0755 152.203 20.2575 152.728 22.7155L152.773 22.9265L152.567 22.9775C150.5 23.4925 148.223 25.1365 147.183 27.7215C146.938 28.3585 146.771 29.0645 146.75 29.7595C146.746 30.4675 146.874 31.2085 147.012 31.9675C147.147 32.7275 147.302 33.5125 147.33 34.3455C147.387 35.1625 147.168 36.1105 146.668 36.8115C145.628 38.3935 143.958 39.1715 142.523 39.9265C141.046 40.6595 139.681 41.4085 138.642 42.4675C136.527 44.5515 135.581 47.2445 135.521 49.4705C135.441 51.7255 136.075 53.5065 136.622 54.6345C137.177 55.7755 137.644 56.3195 137.596 56.3535C137.58 56.3675 137.458 56.2375 137.239 55.9785C137.031 55.7105 136.729 55.3095 136.418 54.7405C135.797 53.6215 135.075 51.8075 135.104 49.4595C135.114 47.1385 136.055 44.2955 138.259 42.0825C139.34 40.9555 140.798 40.1445 142.259 39.4125C143.695 38.6575 145.269 37.8865 146.173 36.4905C147.099 35.2225 146.685 33.5655 146.442 32.0685C146.308 31.3055 146.175 30.5375 146.184 29.7495C146.214 28.9515 146.401 28.2135 146.673 27.5195C147.823 24.7465 150.258 23.0575 152.463 22.5535L152.303 22.8155C151.808 20.2395 152.199 17.9795 153.146 16.7945C153.603 16.2045 154.105 15.8855 154.453 15.7285C154.814 15.5835 155.002 15.5205 155.01 15.5405Z" fill="#375A64"/>
<path d="M141.037 56.3467C141.644 55.6917 142.518 55.0797 143.412 54.7837L143.231 54.7727C143.398 54.7267 143.569 54.7067 143.739 54.6867C144.394 54.5317 145.045 54.5647 145.596 54.9157L145.578 54.9147C146.595 55.2887 147.491 56.0347 147.98 57.0067C148.834 58.6987 148.517 60.8577 147.368 62.3647C146.37 63.6747 144.653 64.5327 143.053 64.1437C141.583 63.7867 140.492 62.4537 140.076 60.9997C139.62 59.4077 139.911 57.5597 141.037 56.3467Z" fill="#7473DB"/>
</svg>
