<svg width="12" height="10" viewBox="0 0 12 10" fill="none" xmlns="http://www.w3.org/2000/svg">
<path d="M9.75 9.40576H7.78125C7.62656 9.40576 7.5 9.2792 7.5 9.12451V8.18701C7.5 8.03232 7.62656 7.90576 7.78125 7.90576H9.75C10.1648 7.90576 10.5 7.57061 10.5 7.15576V2.65576C10.5 2.24092 10.1648 1.90576 9.75 1.90576H7.78125C7.62656 1.90576 7.5 1.7792 7.5 1.62451V0.687012C7.5 0.532324 7.62656 0.405762 7.78125 0.405762H9.75C10.9922 0.405762 12 1.41357 12 2.65576V7.15576C12 8.39795 10.9922 9.40576 9.75 9.40576ZM8.64844 4.69482L4.71094 0.757324C4.35938 0.405762 3.75 0.651855 3.75 1.15576V3.40576H0.5625C0.250781 3.40576 0 3.65654 0 3.96826V6.21826C0 6.52998 0.250781 6.78076 0.5625 6.78076H3.75V9.03076C3.75 9.53467 4.35938 9.78076 4.71094 9.4292L8.64844 5.4917C8.86641 5.27139 8.86641 4.91514 8.64844 4.69482Z" fill="white"/>
</svg>
