<svg width="114" height="18" viewBox="0 0 114 18" fill="none" xmlns="http://www.w3.org/2000/svg">
<path d="M112.294 6.49902H112.44L112.623 7.04902L112.807 6.49902H112.952L113.085 7.28702H112.94L112.856 6.78902L112.688 7.28702H112.556L112.39 6.78902L112.304 7.28702H112.158L112.294 6.49902Z" fill="white"/>
<path d="M111.578 6.49902H112.107V6.64602H111.919V7.28702H111.765V6.64602H111.578V6.49902Z" fill="white"/>
<path d="M105.686 8.4202C106.456 8.4422 107.03 8.6642 107.411 9.0822C107.791 9.50119 107.982 10.0922 107.982 10.8532V17.1362H111.18V10.0542C111.18 8.9112 110.8 7.9022 110.039 7.0262C109.277 6.1502 108.172 5.7132 106.726 5.7132C105.666 5.7132 104.753 6.0562 103.983 6.7402V5.7002L100.785 6.0432V17.1362H103.983V9.8702C104.456 8.9492 105.023 8.4652 105.686 8.4202Z" fill="white"/>
<path d="M99.3879 12.5664V11.4244C99.3879 9.7484 98.8929 8.3784 97.9029 7.3114C96.9119 6.2454 95.5799 5.7124 93.9039 5.7124C92.2289 5.7124 90.8569 6.2454 89.7909 7.3114C88.7259 8.3784 88.1929 9.7484 88.1929 11.4244C88.1929 13.0994 88.7259 14.4704 89.7909 15.5364C90.8569 16.6024 92.2289 17.1354 93.9039 17.1354C96.1899 17.1354 97.7499 16.5644 98.5869 15.4224L96.7609 13.5944C95.9219 14.2044 94.9699 14.5084 93.9039 14.5084C93.2949 14.5084 92.7619 14.3374 92.3049 13.9944C91.8479 13.6514 91.5809 13.1754 91.5049 12.5664H99.3879ZM96.1899 10.2824H91.6189C91.6189 9.6724 91.8479 9.1964 92.3049 8.8534C92.7619 8.5104 93.2949 8.3394 93.9039 8.3394C94.5129 8.3394 95.0459 8.5104 95.5039 8.8534C95.9599 9.1964 96.1899 9.6724 96.1899 10.2824Z" fill="white"/>
<path d="M87.007 12.5664V11.4244C87.007 9.7484 86.512 8.3784 85.523 7.3114C84.532 6.2454 83.199 5.7124 81.524 5.7124C79.849 5.7124 78.478 6.2454 77.411 7.3114C76.345 8.3784 75.813 9.7484 75.813 11.4244C75.813 13.0994 76.345 14.4704 77.411 15.5364C78.478 16.6024 79.849 17.1354 81.524 17.1354C83.809 17.1354 85.37 16.5644 86.207 15.4224L84.38 13.5944C83.542 14.2044 82.591 14.5084 81.524 14.5084C80.914 14.5084 80.382 14.3374 79.925 13.9944C79.467 13.6514 79.201 13.1754 79.124 12.5664H87.007ZM83.809 10.2824H79.238C79.238 9.6724 79.467 9.1964 79.925 8.8534C80.382 8.5104 80.914 8.3394 81.524 8.3394C82.133 8.3394 82.666 8.5104 83.123 8.8534C83.58 9.1964 83.809 9.6724 83.809 10.2824Z" fill="white"/>
<path d="M71.6707 5.70117L68.4717 6.04417V17.1362H71.6707V10.1102C72.1887 9.03717 72.8357 8.47217 73.6117 8.42117C74.3057 8.44317 74.8377 8.62117 75.2117 8.95717L75.7147 5.80417C75.3787 5.74317 75.0247 5.71317 74.6517 5.71317C73.4797 5.71317 72.4847 6.13217 71.6707 6.96917V5.70117Z" fill="white"/>
<path d="M62.6104 17.1359C64.4384 17.1359 65.9614 16.4889 67.1794 15.1939L64.8954 13.4809C64.2104 14.1659 63.4484 14.5089 62.6104 14.5089C61.7724 14.5089 61.0874 14.2039 60.5534 13.5949C60.0204 12.9869 59.7544 12.2619 59.7544 11.4239C59.7544 10.5869 60.0404 9.86289 60.6114 9.25389C61.1824 8.64489 61.8484 8.33989 62.6104 8.33989C63.4484 8.33989 64.2104 8.68189 64.8954 9.36689L67.1794 7.65489C65.9684 6.36089 64.4504 5.71289 62.6224 5.71289C61.0914 5.71289 59.7544 6.18889 58.6114 7.14089C57.4694 8.09189 56.8984 9.32989 56.8984 10.8529V11.9949C56.8984 13.5189 57.4694 14.7569 58.6114 15.7079C59.7544 16.6599 61.0874 17.1359 62.6104 17.1359Z" fill="white"/>
<path d="M49.5106 0C48.1396 0 46.8046 0.459 45.5066 1.377C44.2076 2.295 43.5596 3.511 43.5596 5.027C43.5596 6.702 44.1296 7.883 45.2726 8.568C46.4146 9.253 47.6716 9.673 49.0416 9.825C50.5656 9.978 51.5156 10.377 51.8926 11.023C52.2696 11.672 52.2696 12.319 51.8926 12.966C51.5156 13.613 50.5656 13.938 49.0416 13.938C47.2146 13.785 45.9196 13.252 45.1576 12.338L42.8726 14.623C43.6346 15.385 44.5486 15.993 45.6146 16.45C46.6816 16.907 48.0106 17.136 49.6016 17.136C51.2776 17.136 52.7456 16.641 54.0056 15.65C55.2666 14.661 55.8966 13.48 55.8966 12.109C55.8966 10.357 55.3066 9.082 54.1256 8.282C52.9456 7.482 51.6306 7.007 50.1856 6.854C48.8136 6.626 47.9386 6.283 47.5576 5.826C47.1766 5.37 47.1766 4.817 47.5576 4.17C47.9386 3.522 48.8136 3.199 50.1856 3.199C51.5556 3.199 52.6216 3.656 53.3836 4.569L55.6676 2.285C54.9066 1.523 54.0876 0.952 53.2116 0.571C52.3356 0.19 51.1026 0 49.5106 0Z" fill="white"/>
<path d="M41.675 12.5664V11.4244C41.675 9.7484 41.18 8.3784 40.19 7.3114C39.2 6.2454 37.867 5.7124 36.192 5.7124C34.517 5.7124 33.145 6.2454 32.079 7.3114C31.013 8.3784 30.48 9.7484 30.48 11.4244C30.48 13.0994 31.013 14.4704 32.079 15.5364C33.145 16.6024 34.517 17.1354 36.192 17.1354C38.477 17.1354 40.037 16.5644 40.875 15.4224L39.048 13.5944C38.21 14.2044 37.258 14.5084 36.192 14.5084C35.582 14.5084 35.049 14.3374 34.592 13.9944C34.135 13.6514 33.868 13.1754 33.792 12.5664H41.675ZM38.477 10.2824H33.906C33.906 9.6724 34.135 9.1964 34.592 8.8534C35.049 8.5104 35.582 8.3394 36.192 8.3394C36.801 8.3394 37.333 8.5104 37.791 8.8534C38.247 9.1964 38.477 9.6724 38.477 10.2824Z" fill="white"/>
<path d="M23.4483 8.4202C24.2183 8.4422 24.7923 8.6642 25.1733 9.0822C25.5533 9.50119 25.7443 10.0922 25.7443 10.8532V17.1362H28.9433V10.0542C28.9433 8.9112 28.5613 7.9022 27.8013 7.0262C27.0393 6.1502 25.9343 5.7132 24.4873 5.7132C23.4293 5.7132 22.5153 6.0562 21.7463 6.7402V5.7002L18.5483 6.0432V17.1362H21.7463V9.8702C22.2193 8.9492 22.7863 8.4652 23.4483 8.4202Z" fill="white"/>
<path d="M17.136 8.56847C17.136 6.13047 16.317 4.09446 14.68 2.45646C13.042 0.819465 11.004 0.00146484 8.568 0.00146484C6.13 0.00146484 4.093 0.819465 2.456 2.45646C0.819 4.09446 0 6.13047 0 8.56847C0 10.9975 0.819 13.0335 2.456 14.6735C4.093 16.3155 6.13 17.1355 8.568 17.1355C11.004 17.1355 13.042 16.3175 14.68 14.6795C16.317 13.0435 17.136 11.0055 17.136 8.56847ZM13.708 8.56847C13.708 10.0915 13.233 11.3665 12.281 12.3955C11.328 13.4225 10.094 13.9375 8.579 13.9375C7.048 13.9375 5.807 13.4225 4.855 12.3955C3.903 11.3665 3.427 10.0915 3.427 8.56847C3.427 7.04647 3.903 5.76946 4.855 4.74146C5.807 3.71346 7.04 3.19946 8.556 3.19946C10.086 3.19946 11.328 3.71346 12.281 4.74146C13.233 5.76946 13.708 7.04647 13.708 8.56847Z" fill="white"/>
</svg>
