<svg width="24" height="25" viewBox="0 0 24 25" fill="none" xmlns="http://www.w3.org/2000/svg">
<mask id="mask0_155_23101" style="mask-type:alpha" maskUnits="userSpaceOnUse" x="0" y="0" width="24" height="25">
<rect y="0.5" width="24" height="24" fill="#D9D9D9"/>
</mask>
<g mask="url(#mask0_155_23101)">
<path d="M11.8216 18.3156C11.7417 18.4116 11.5943 18.4116 11.5143 18.3156L9.44133 15.828C9.33278 15.6978 9.42541 15.5 9.59498 15.5H13.741C13.9105 15.5 14.0032 15.6978 13.8946 15.828L11.8216 18.3156Z" fill="#9500DE"/>
<path d="M11.8216 5.68437C11.7417 5.58842 11.5943 5.58842 11.5143 5.68437L9.44133 8.17196C9.33278 8.30223 9.42541 8.5 9.59498 8.5H13.741C13.9105 8.5 14.0032 8.30223 13.8946 8.17196L11.8216 5.68437Z" fill="#9500DE"/>
<path d="M5.40668 14.5209C5.18631 14.5209 5.00159 14.4456 4.85252 14.295C4.70344 14.1444 4.62891 13.9578 4.62891 13.7352C4.62891 13.5126 4.70344 13.326 4.85252 13.1754C5.00159 13.0248 5.18631 12.9495 5.40668 12.9495H17.8511C18.0715 12.9495 18.2562 13.0248 18.4053 13.1754C18.5544 13.326 18.6289 13.5126 18.6289 13.7352C18.6289 13.9578 18.5544 14.1444 18.4053 14.295C18.2562 14.4456 18.0715 14.5209 17.8511 14.5209H5.40668ZM5.40668 11.3781C5.18631 11.3781 5.00159 11.3028 4.85252 11.1522C4.70344 11.0016 4.62891 10.815 4.62891 10.5924C4.62891 10.3697 4.70344 10.1831 4.85252 10.0325C5.00159 9.88194 5.18631 9.80664 5.40668 9.80664H17.8511C18.0715 9.80664 18.2562 9.88194 18.4053 10.0325C18.5544 10.1831 18.6289 10.3697 18.6289 10.5924C18.6289 10.815 18.5544 11.0016 18.4053 11.1522C18.2562 11.3028 18.0715 11.3781 17.8511 11.3781H5.40668Z" fill="#9500DE"/>
</g>
</svg>
