<svg width="24" height="25" viewBox="0 0 24 25" fill="none" xmlns="http://www.w3.org/2000/svg">
<path d="M12 24.9131C18.6274 24.9131 24 19.5405 24 12.9131C24 6.28567 18.6274 0.913086 12 0.913086C5.37258 0.913086 0 6.28567 0 12.9131C0 19.5405 5.37258 24.9131 12 24.9131Z" fill="#333333"/>
<path d="M13.1124 13.9451V19.5451H10.6084V13.9451H8.56836V11.6251H10.6084V9.86512C10.5637 9.45275 10.6104 9.03559 10.7451 8.6433C10.8799 8.25102 11.0994 7.89324 11.3881 7.59539C11.6768 7.29754 12.0275 7.06694 12.4154 6.91999C12.8033 6.77304 13.2188 6.71333 13.6324 6.74512C14.2326 6.75296 14.8314 6.80376 15.4244 6.89712V8.87312H14.4164C14.2444 8.84948 14.0694 8.86499 13.9043 8.91849C13.7392 8.972 13.5883 9.06212 13.4629 9.18212C13.3375 9.30212 13.2408 9.4489 13.1802 9.6115C13.1195 9.7741 13.0963 9.94831 13.1124 10.1211V11.6251H15.3284L14.9764 13.9451H13.1124Z" fill="white"/>
</svg>
