<svg width="24" height="25" viewBox="0 0 24 25" fill="none" xmlns="http://www.w3.org/2000/svg">
<path d="M12 24.9131C18.6274 24.9131 24 19.5405 24 12.9131C24 6.28567 18.6274 0.913086 12 0.913086C5.37258 0.913086 0 6.28567 0 12.9131C0 19.5405 5.37258 24.9131 12 24.9131Z" fill="#333333"/>
<path d="M17.5605 15.449C17.5834 15.882 17.5152 16.3149 17.3602 16.7198C17.2052 17.1247 16.9669 17.4925 16.6607 17.7995C16.3545 18.1064 15.9873 18.3456 15.5828 18.5016C15.1782 18.6576 14.7455 18.7269 14.3125 18.705C13.3845 18.753 10.6085 18.753 9.68848 18.705C9.25514 18.7268 8.82203 18.6575 8.41713 18.5016C8.01222 18.3457 7.6445 18.1066 7.3377 17.7998C7.03089 17.493 6.79182 17.1253 6.6359 16.7204C6.47998 16.3155 6.41069 15.8824 6.43248 15.449C6.38448 14.529 6.38448 11.753 6.43248 10.825C6.41059 10.392 6.47987 9.95925 6.63587 9.55473C6.79186 9.15021 7.03108 8.78297 7.33803 8.47678C7.64497 8.17059 8.0128 7.93228 8.4177 7.77728C8.8226 7.62228 9.25553 7.55406 9.68848 7.57702C10.6085 7.52902 13.3845 7.52902 14.3125 7.57702C14.7455 7.55512 15.1782 7.62441 15.5828 7.78041C15.9873 7.9364 16.3545 8.17561 16.6607 8.48256C16.9669 8.7895 17.2052 9.15733 17.3602 9.56223C17.5152 9.96713 17.5834 10.4001 17.5605 10.833C17.6165 11.753 17.6165 14.529 17.5605 15.449ZM16.5925 13.145C16.6643 12.0386 16.5889 10.9276 16.3685 9.84102C16.274 9.59995 16.1307 9.38101 15.9476 9.19792C15.7645 9.01483 15.5455 8.87154 15.3045 8.77702C14.2188 8.54995 13.1072 8.4719 12.0005 8.54502C10.8937 8.4719 9.78215 8.54995 8.69647 8.77702C8.46058 8.87395 8.24721 9.01846 8.06965 9.20152C7.8921 9.38458 7.75417 9.60228 7.66448 9.84102C7.44403 10.9276 7.36871 12.0386 7.44048 13.145C7.36506 14.2488 7.44042 15.3576 7.66448 16.441C7.75813 16.6746 7.89773 16.887 8.075 17.0657C8.25227 17.2443 8.4636 17.3856 8.69647 17.481C9.78215 17.7081 10.8937 17.7861 12.0005 17.713C13.1072 17.7861 14.2188 17.7081 15.3045 17.481C15.5455 17.3865 15.7645 17.2432 15.9476 17.0601C16.1307 16.877 16.274 16.6581 16.3685 16.417C16.5865 15.3409 16.6618 14.2408 16.5925 13.145ZM14.8725 13.145C14.8709 13.7127 14.7011 14.2672 14.3846 14.7384C14.068 15.2097 13.6189 15.5765 13.094 15.7927C12.5691 16.0088 11.9919 16.0646 11.4353 15.9529C10.8787 15.8411 10.3677 15.567 9.96686 15.165C9.566 14.763 9.29326 14.2513 9.18309 13.6944C9.07292 13.1375 9.13026 12.5604 9.34787 12.0361C9.56547 11.5118 9.93359 11.0637 10.4057 10.7485C10.8778 10.4333 11.4328 10.265 12.0005 10.265C12.3776 10.2661 12.7509 10.3414 13.0989 10.4867C13.447 10.632 13.763 10.8444 14.0289 11.1119C14.2949 11.3793 14.5056 11.6965 14.6489 12.0453C14.7923 12.3942 14.8655 12.7679 14.8645 13.145H14.8725ZM13.8645 13.145C13.8661 12.7741 13.7574 12.4111 13.5523 12.102C13.3472 11.7929 13.055 11.5517 12.7126 11.4091C12.3702 11.2664 11.9931 11.2286 11.6292 11.3006C11.2654 11.3726 10.9311 11.551 10.6688 11.8133C10.4065 12.0756 10.2281 12.4099 10.1561 12.7738C10.0841 13.1377 10.1218 13.5147 10.2645 13.8571C10.4072 14.1995 10.6484 14.4918 10.9574 14.6969C11.2665 14.902 11.6296 15.0106 12.0005 15.009C12.2453 15.009 12.4876 14.9608 12.7138 14.8671C12.9399 14.7735 13.1454 14.6362 13.3185 14.4631C13.4916 14.29 13.6289 14.0845 13.7226 13.8583C13.8163 13.6322 13.8645 13.3898 13.8645 13.145ZM14.9925 9.48102C14.8143 9.48102 14.6433 9.55182 14.5173 9.67784C14.3913 9.80386 14.3205 9.97479 14.3205 10.153C14.3205 10.2859 14.3599 10.4158 14.4337 10.5264C14.5076 10.6369 14.6125 10.723 14.7353 10.7739C14.8581 10.8247 14.9932 10.838 15.1236 10.8121C15.2539 10.7862 15.3737 10.7222 15.4677 10.6282C15.5616 10.5342 15.6256 10.4145 15.6516 10.2841C15.6775 10.1538 15.6642 10.0186 15.6133 9.89585C15.5625 9.77306 15.4763 9.66811 15.3658 9.59427C15.2553 9.52043 15.1254 9.48102 14.9925 9.48102Z" fill="white"/>
</svg>
