<svg width="25" height="18" viewBox="0 0 25 18" fill="none" xmlns="http://www.w3.org/2000/svg">
<path d="M22.574 1.14006L18.3333 4.92995V12.4063L22.5754 16.1924C22.981 16.5543 23.5 16.1626 23.5 15.5999V1.73135C23.5 1.17214 22.9828 0.777853 22.574 1.14006ZM22.574 1.14006C22.5742 1.13988 22.5738 1.14024 22.574 1.14006ZM2.24167 1.00092H14.2583C14.9441 1.00092 15.5 1.72113 15.5 2.60965V15.1168C15.5 16.0053 14.9441 16.7256 14.2583 16.7256H2.24167C1.55588 16.7256 1 16.0053 1 15.1168V2.60965C1 1.72113 1.55588 1.00092 2.24167 1.00092Z" stroke="#333333" stroke-width="1.5"/>
</svg>
