<svg width="108" height="36" viewBox="0 0 108 36" fill="none" xmlns="http://www.w3.org/2000/svg">
<path d="M104.688 16.7435C104.688 13.9165 103.148 12.4615 100.826 12.4615C98.4746 12.4615 96.9356 13.9165 96.9356 16.7435V25.3625H93.7456V9.94247H96.9356V11.7055C97.9706 10.4465 99.6776 9.69147 101.526 9.69147C105.135 9.69147 107.849 11.9585 107.849 16.2675V25.3625H104.688V16.7435Z" fill="white"/>
<path d="M84.3984 25.6145C80.7044 25.6145 78.1014 23.4315 77.9614 20.6335H81.2634C81.3764 21.8925 82.5794 22.9275 84.3424 22.9275C86.1894 22.9275 87.1684 22.1445 87.1684 21.0805C87.1684 18.0585 78.2134 19.7935 78.2134 14.1405C78.2134 11.6775 80.5084 9.69049 84.1464 9.69049C87.6444 9.69049 89.9384 11.5665 90.1064 14.6445H86.9174C86.8044 13.3015 85.7694 12.3775 84.0354 12.3775C82.3284 12.3775 81.4314 13.0775 81.4314 14.1125C81.4314 17.2185 90.1354 15.4845 90.3024 21.0525C90.3024 23.6555 88.0354 25.6145 84.3984 25.6145Z" fill="white"/>
<path d="M69.4541 25.6145C65.7601 25.6145 63.1581 23.4315 63.0171 20.6335H66.3201C66.4331 21.8925 67.6351 22.9275 69.3981 22.9275C71.2451 22.9275 72.2251 22.1445 72.2251 21.0805C72.2251 18.0585 63.2701 19.7935 63.2701 14.1405C63.2701 11.6775 65.5641 9.69049 69.2021 9.69049C72.7001 9.69049 74.9951 11.5665 75.1641 14.6445H71.9731C71.8611 13.3015 70.8261 12.3775 69.0911 12.3775C67.3841 12.3775 66.4881 13.0775 66.4881 14.1125C66.4881 17.2185 75.1911 15.4845 75.3591 21.0525C75.3591 23.6555 73.0931 25.6145 69.4541 25.6145Z" fill="white"/>
<path d="M48.8583 16.268H57.3933C57.3373 13.889 55.4623 12.378 53.0843 12.378C50.9283 12.378 49.1933 13.832 48.8583 16.268ZM53.2233 25.615C48.8013 25.615 45.5273 22.48 45.5273 17.64C45.5273 12.798 48.6623 9.69098 53.2233 9.69098C57.6173 9.69098 60.7233 12.742 60.7233 17.275C60.7233 17.807 60.6953 18.311 60.6123 18.842H48.8303C49.0533 21.389 50.8733 22.928 53.2233 22.928C55.1823 22.928 56.2743 21.977 56.8613 20.773H60.3033C59.4353 23.46 57.0013 25.615 53.2233 25.615Z" fill="white"/>
<path d="M37.3565 5.91339V22.7884H43.9335V25.3624H34.1665V5.91339H37.3565Z" fill="white"/>
<path fill-rule="evenodd" clip-rule="evenodd" d="M15.5586 24.952V23.16L14.9406 23.574L3.87061 31.022V32.813L4.48861 32.399L15.5586 24.952Z" fill="white"/>
<path fill-rule="evenodd" clip-rule="evenodd" d="M18.2687 24.9055L7.19873 32.3535V34.1445L7.81673 33.7305L18.8867 26.2825V24.4915L18.2687 24.9055Z" fill="white"/>
<path d="M23.796 5.1278C23.777 4.3798 23.484 3.6468 22.979 2.9938C22.411 2.2618 21.57 1.6238 20.551 1.1798C19.554 0.746804 18.378 0.495804 17.117 0.526804C15.353 0.569804 13.423 1.1628 11.59 2.5778L0.332 10.1518L0 10.3758V31.8488L12.441 23.4788L12.481 23.4508C15.143 21.3878 17.998 21.3678 19.972 22.2298C20.572 22.4918 21.085 22.8328 21.48 23.2198C21.851 23.5838 22.112 23.9808 22.234 24.3788C22.425 25.0088 22.244 25.6858 21.551 26.2678L10.526 33.6848V35.4758L11.145 35.0628L22.425 27.4728L22.486 27.4288C23.336 26.7258 23.743 25.9098 23.796 25.0788V25.0658C23.803 24.9508 23.803 24.8348 23.796 24.7198V5.1278Z" fill="white"/>
<path d="M6.19234 22.0852C5.99034 22.0502 5.78534 22.0272 5.58634 21.9772C4.79734 21.7752 4.23734 21.2872 3.84234 20.5852C3.75734 20.4332 3.87134 20.2002 4.00034 20.1362C4.10034 20.0852 4.15234 20.1402 4.20034 20.2262C4.47834 20.7312 4.86834 21.1232 5.39934 21.3592C6.07934 21.6622 6.77534 21.6452 7.47635 21.4532C8.36135 21.2102 9.12934 20.7442 9.82335 20.1582C11.4473 18.7882 12.5423 17.0602 13.2243 15.0582C13.2303 15.0422 13.2363 15.0242 13.2393 15.0072C13.2413 15.0002 13.2353 14.9912 13.2273 14.9662C13.0423 15.2252 12.8633 15.4752 12.6823 15.7242C12.6433 15.7782 12.6023 15.8372 12.5483 15.8732C12.5073 15.9002 12.4283 15.9192 12.3953 15.8982C12.3593 15.8742 12.3383 15.7962 12.3463 15.7472C12.3563 15.6792 12.3873 15.6082 12.4273 15.5512C12.7633 15.0752 13.1023 14.6022 13.4433 14.1292C13.4733 14.0862 13.5143 14.0482 13.5583 14.0192C13.6283 13.9712 13.6933 13.9772 13.7393 14.0582C13.9213 14.3812 14.1083 14.7032 14.2863 15.0292C14.3633 15.1702 14.2523 15.4162 14.1003 15.4632C14.0223 15.4882 13.9743 15.4572 13.9373 15.3882C13.8423 15.2162 13.7443 15.0472 13.6323 14.8532C13.5943 14.9662 13.5653 15.0532 13.5353 15.1392C12.7963 17.2542 11.6283 19.0852 9.90434 20.5352C9.15534 21.1672 8.32634 21.6682 7.37034 21.9272C7.12934 21.9922 6.87934 22.0172 6.63134 22.0602C6.59234 22.0672 6.55434 22.0772 6.51534 22.0852H6.19234Z" fill="#4B269F"/>
<path d="M9.16484 11.5584C8.92784 11.6904 8.72684 11.8284 8.50584 11.9194C8.23384 12.0304 8.12184 12.1984 8.17084 12.4914C8.20084 12.6714 8.11484 12.8154 7.97884 12.9404C7.81684 13.0884 7.66384 13.2464 7.51884 13.4104C7.29984 13.6564 7.30284 13.6624 7.01584 13.5014C6.93084 13.4544 6.87784 13.4634 6.82984 13.5494C6.73084 13.7254 6.62784 13.8984 6.52584 14.0724C6.41884 14.2564 6.31084 14.4414 6.19884 14.6334C6.26484 14.6744 6.31584 14.7074 6.36884 14.7394C6.56884 14.8594 6.57884 14.8994 6.50784 15.1174C6.42884 15.3554 6.35484 15.5954 6.29284 15.8374C6.24784 16.0084 6.16584 16.1394 6.00284 16.2164C5.91384 16.2584 5.82784 16.3084 5.74484 16.3604C5.71484 16.3794 5.67484 16.4164 5.67484 16.4464C5.66984 16.8044 5.67184 17.1614 5.67184 17.5454C5.80884 17.4704 5.92484 17.4054 6.04084 17.3424C6.19584 17.2574 6.23784 17.2784 6.29684 17.4384C6.34784 17.5774 6.39684 17.7204 6.47584 17.8424C6.56684 17.9844 6.55884 18.1074 6.47684 18.2424C6.40284 18.3644 6.32684 18.4864 6.26484 18.6154C6.24484 18.6544 6.24984 18.7444 6.27484 18.7614C6.47684 18.8924 6.68584 19.0124 6.89984 19.1394C7.00484 18.9604 7.10084 18.7934 7.19984 18.6294C7.25784 18.5344 7.32984 18.4664 7.45684 18.4644C7.62584 18.4624 7.79584 18.4504 7.96384 18.4294C8.13084 18.4084 8.17084 18.4344 8.17384 18.6104C8.17584 18.7434 8.17384 18.8754 8.17384 19.0344C8.39984 18.9084 8.59284 18.7744 8.80584 18.6884C9.09484 18.5724 9.22184 18.3934 9.16884 18.0784C9.14084 17.9134 9.22384 17.7794 9.34784 17.6644C9.50884 17.5154 9.66184 17.3574 9.80884 17.1954C10.0378 16.9404 10.0348 16.9354 10.3318 17.0984C10.3978 17.1334 10.4498 17.1414 10.4908 17.0704C10.7058 16.7044 10.9198 16.3364 11.1398 15.9604C11.0638 15.9144 10.9958 15.8714 10.9278 15.8304C10.7778 15.7404 10.7608 15.6914 10.8168 15.5214C10.8738 15.3514 10.9358 15.1834 10.9838 15.0114C11.1348 14.4664 11.0348 14.5414 11.5768 14.2464C11.6508 14.2044 11.6728 14.1554 11.6718 14.0754C11.6688 13.7794 11.6708 13.4834 11.6698 13.1874C11.6698 13.1484 11.6638 13.1104 11.6578 13.0534C11.5138 13.1324 11.3868 13.2054 11.2578 13.2734C11.1578 13.3264 11.0938 13.3044 11.0528 13.1894C10.9978 13.0384 10.9428 12.8834 10.8588 12.7484C10.7738 12.6104 10.7768 12.4914 10.8548 12.3604C10.9318 12.2334 11.0098 12.1074 11.0758 11.9754C11.0958 11.9384 11.0948 11.8534 11.0718 11.8384C10.8668 11.7054 10.6548 11.5834 10.4378 11.4544C10.3818 11.5504 10.3338 11.6304 10.2858 11.7114C10.2358 11.7964 10.1878 11.8824 10.1378 11.9664C10.0698 12.0794 9.97884 12.1344 9.83884 12.1284C9.68784 12.1224 9.53484 12.1384 9.38484 12.1604C9.20484 12.1854 9.16884 12.1644 9.16484 11.9834C9.16284 11.8514 9.16484 11.7194 9.16484 11.5584ZM10.0038 17.5184C9.85284 17.6564 9.71583 17.7774 9.58484 17.9064C9.55783 17.9334 9.54884 17.9854 9.54584 18.0274C9.53784 18.1394 9.54684 18.2524 9.53084 18.3624C9.49684 18.6074 9.37084 18.7974 9.15384 18.9204C8.83484 19.1024 8.51484 19.2814 8.19284 19.4584C7.93784 19.5994 7.80284 19.5174 7.79784 19.2254C7.79584 19.1324 7.79684 19.0384 7.79684 18.9334C7.65284 18.9434 7.52384 18.9474 7.39584 18.9634C7.36684 18.9674 7.33684 19.0104 7.31584 19.0424C7.23884 19.1624 7.17884 19.2964 7.08984 19.4064C6.92284 19.6134 6.76984 19.7124 6.50784 19.5264C6.36184 19.4224 6.20084 19.3414 6.04684 19.2494C5.87984 19.1494 5.81084 19.0334 5.86084 18.8464C5.90984 18.6674 5.99084 18.4954 6.07284 18.3294C6.10984 18.2514 6.12084 18.1954 6.07684 18.1194C6.02584 18.0314 5.99084 17.9344 5.94484 17.8324C5.83784 17.8904 5.73884 17.9494 5.63484 17.9984C5.44584 18.0904 5.30484 18.0154 5.30084 17.8084C5.29284 17.3874 5.28784 16.9654 5.30484 16.5444C5.31384 16.2874 5.45184 16.0764 5.68484 15.9644C5.88184 15.8684 6.00784 15.7414 6.03184 15.5204C6.03384 15.4984 6.04484 15.4774 6.05184 15.4554C6.12284 15.2274 6.12384 15.2254 5.93184 15.0954C5.79884 15.0064 5.80184 14.8744 5.82784 14.7464C5.84784 14.6524 5.88884 14.5584 5.93584 14.4744C6.14384 14.1084 6.35284 13.7424 6.57484 13.3844C6.65084 13.2614 6.75484 13.1484 6.86784 13.0584C7.02884 12.9304 7.20384 12.9694 7.31884 13.0614C7.47684 12.9254 7.62184 12.8054 7.75984 12.6774C7.78584 12.6524 7.79284 12.5974 7.79584 12.5554C7.80084 12.4704 7.79384 12.3854 7.79984 12.3004C7.81684 12.0254 7.94184 11.8124 8.18184 11.6744C8.50383 11.4894 8.82884 11.3094 9.15484 11.1294C9.39384 10.9984 9.53484 11.0814 9.54384 11.3524C9.54684 11.4544 9.54384 11.5564 9.54384 11.6494C9.56784 11.6584 9.57184 11.6614 9.57584 11.6614C9.87284 11.6944 10.0718 11.5784 10.1818 11.2914C10.2158 11.2014 10.3018 11.1244 10.3788 11.0584C10.5148 10.9444 10.6178 10.9444 10.7708 11.0354C10.9448 11.1384 11.1178 11.2414 11.2908 11.3454C11.4538 11.4434 11.5258 11.5654 11.4768 11.7484C11.4278 11.9274 11.3468 12.0984 11.2648 12.2654C11.2268 12.3434 11.2168 12.3984 11.2618 12.4744C11.3118 12.5614 11.3478 12.6594 11.3938 12.7634C11.4978 12.7044 11.5938 12.6474 11.6918 12.5984C11.8838 12.5014 12.0338 12.5764 12.0398 12.7884C12.0508 13.2054 12.0548 13.6224 12.0368 14.0384C12.0248 14.3054 11.8828 14.5204 11.6398 14.6384C11.4558 14.7264 11.3318 14.8404 11.3118 15.0514C11.3088 15.0904 11.2888 15.1284 11.2768 15.1664C11.2138 15.3714 11.2138 15.3714 11.3968 15.4934C11.5128 15.5704 11.5538 15.6874 11.5078 15.8634C11.4838 15.9534 11.4458 16.0414 11.3998 16.1224C11.1908 16.4884 10.9788 16.8524 10.7628 17.2134C10.7028 17.3114 10.6278 17.4044 10.5428 17.4814C10.3688 17.6404 10.1788 17.6644 10.0038 17.5184Z" fill="#4B269F"/>
<path d="M3.88867 16.3524C4.08367 16.0794 4.26567 15.8244 4.44867 15.5714C4.48567 15.5204 4.52567 15.4674 4.57567 15.4354C4.61467 15.4094 4.69167 15.3904 4.71867 15.4114C4.75467 15.4394 4.78167 15.5124 4.77467 15.5594C4.76267 15.6314 4.72967 15.7064 4.68767 15.7664C4.35467 16.2394 4.01767 16.7084 3.68067 17.1784C3.64967 17.2214 3.60967 17.2604 3.56667 17.2904C3.49267 17.3424 3.42467 17.3344 3.37567 17.2484C3.19567 16.9284 3.01167 16.6104 2.83467 16.2884C2.75667 16.1454 2.86067 15.9034 3.01367 15.8504C3.08867 15.8244 3.14067 15.8494 3.17967 15.9194C3.27667 16.0954 3.37667 16.2694 3.48967 16.4654C3.56167 16.1884 3.61767 15.9334 3.69467 15.6844C4.43467 13.2654 5.72567 11.2074 7.72067 9.6254C8.46067 9.0404 9.27767 8.5874 10.2097 8.3794C10.9567 8.2134 11.6897 8.2394 12.3797 8.6074C13.1467 9.0174 13.5767 9.6904 13.8237 10.4984C13.8467 10.5764 13.8167 10.6894 13.7727 10.7634C13.7317 10.8314 13.6437 10.8864 13.5657 10.9054C13.5387 10.9124 13.4637 10.8014 13.4407 10.7334C13.1627 9.9314 12.6977 9.2944 11.8897 8.9614C11.2267 8.6884 10.5487 8.7224 9.87367 8.9134C8.90567 9.1884 8.07667 9.7164 7.33867 10.3844C5.57567 11.9784 4.44067 13.9484 3.88467 16.2564C3.88167 16.2694 3.87967 16.2824 3.87867 16.2954C3.87767 16.3044 3.88167 16.3124 3.88867 16.3524Z" fill="#4B269F"/>
<path d="M7.408 15.9373C7.417 16.0553 7.419 16.1453 7.431 16.2333C7.514 16.7773 7.94 17.0363 8.453 16.8383C8.626 16.7723 8.793 16.6723 8.937 16.5563C9.379 16.2003 9.664 15.7353 9.829 15.1953C9.911 14.9273 9.946 14.6543 9.908 14.3733C9.836 13.8343 9.422 13.5673 8.91 13.7443C8.78 13.7893 8.65 13.8513 8.541 13.9323C7.854 14.4363 7.489 15.1213 7.408 15.9373ZM10.322 14.3373C10.195 15.5603 9.701 16.5133 8.692 17.1563C8.507 17.2743 8.273 17.3403 8.053 17.3753C7.651 17.4383 7.323 17.2313 7.162 16.8553C6.989 16.4543 7.011 16.0393 7.11 15.6283C7.313 14.7963 7.739 14.1003 8.424 13.5763C8.697 13.3663 9.001 13.2143 9.357 13.2073C9.746 13.2003 10.026 13.3793 10.169 13.7333C10.251 13.9373 10.28 14.1633 10.322 14.3373Z" fill="#4B269F"/>
</svg>
