<svg width="32" height="32" viewBox="0 0 32 32" fill="none" xmlns="http://www.w3.org/2000/svg">
<path d="M20.847 8.3741C20.847 8.6121 20.653 8.8081 20.415 8.8081H18.255C17.3 8.8081 16.527 9.5851 16.527 10.5431V13.5801H20.156C20.573 13.5801 20.894 13.9461 20.843 14.3611L20.583 16.4421C20.54 16.7901 20.245 17.0511 19.897 17.0511H16.527V25.7511C16.171 25.7821 15.811 25.7991 15.447 25.7991C14.633 25.7991 13.838 25.7181 13.07 25.5621V17.0511H10.478C10.24 17.0511 10.046 16.8551 10.046 16.6171V14.0141C10.046 13.7751 10.24 13.5801 10.478 13.5801H13.07V9.6751C13.07 7.2791 15.005 5.3371 17.391 5.3371H20.415C20.653 5.3371 20.847 5.5321 20.847 5.7701V8.3741ZM16.235 0.0150986C7.64501 0.0150986 0.682007 6.9781 0.682007 15.5671C0.682007 24.1571 7.64501 31.1211 16.235 31.1211C24.825 31.1211 31.788 24.1571 31.788 15.5671C31.788 6.9781 24.825 0.0150986 16.235 0.0150986Z" fill="white"/>
</svg>
