<svg width="24" height="24" viewBox="0 0 24 24" fill="none" xmlns="http://www.w3.org/2000/svg">
<g clip-path="url(#clip0_3_4)">
<path d="M9 9.75C9 8.92031 8.32969 8.25 7.5 8.25H6.75C5.09062 8.25 3.75 9.59531 3.75 11.25V13.5C3.75 15.1594 5.09531 16.5 6.75 16.5H7.5C8.32969 16.5 9 15.8297 9 15V9.75ZM17.25 16.5C18.9094 16.5 20.25 15.1547 20.25 13.5V11.25C20.25 9.59062 18.9047 8.25 17.25 8.25H16.5C15.6703 8.25 15 8.92031 15 9.75V15C15 15.8297 15.6703 16.5 16.5 16.5H17.25ZM12 0C5.30625 0 0.215625 5.56875 0 12V12.75C0 13.1625 0.3375 13.5 0.75 13.5H1.5C1.9125 13.5 2.25 13.1625 2.25 12.75V12C2.25 6.62344 6.62344 2.25 12 2.25C17.3766 2.25 21.75 6.62344 21.75 12H21.7453C21.75 12.1125 21.75 19.7672 21.75 19.7672C21.75 20.8641 20.8641 21.75 19.7672 21.75H15C15 20.5078 13.9922 19.5 12.75 19.5H11.25C10.0078 19.5 9 20.5078 9 21.75C9 22.9922 10.0078 24 11.25 24H19.7672C22.1063 24 24 22.1063 24 19.7672V12C23.7844 5.56875 18.6938 0 12 0Z" fill="#333333"/>
</g>
<defs>
<clipPath id="clip0_3_4">
<rect width="24" height="24" fill="white"/>
</clipPath>
</defs>
</svg>
