<svg width="32" height="32" viewBox="0 0 32 32" fill="none" xmlns="http://www.w3.org/2000/svg">
<path d="M20.9558 11.9114C20.4908 11.9114 20.1118 11.5324 20.1118 11.0664C20.1118 10.6014 20.4908 10.2234 20.9558 10.2234C21.4218 10.2234 21.8008 10.6014 21.8008 11.0664C21.8008 11.5324 21.4218 11.9114 20.9558 11.9114ZM16.4548 19.7884C14.1258 19.7884 12.2348 17.8974 12.2348 15.5674C12.2348 13.2384 14.1258 11.3484 16.4548 11.3484C18.7848 11.3484 20.6748 13.2384 20.6748 15.5674C20.6748 17.8974 18.7848 19.7884 16.4548 19.7884ZM20.3858 8.81637H12.5088C10.9558 8.81637 9.69482 10.0764 9.69482 11.6304V19.5064C9.69482 21.0594 10.9558 22.3194 12.5088 22.3194H20.3858C21.9378 22.3194 23.1988 21.0594 23.1988 19.5064V11.6304C23.1988 10.0764 21.9378 8.81637 20.3858 8.81637Z" fill="white"/>
<path d="M24.605 19.7881C24.605 21.9621 22.841 23.7261 20.667 23.7261H12.227C10.052 23.7261 8.28904 21.9621 8.28904 19.7881V11.3481C8.28904 9.1731 10.052 7.4091 12.227 7.4091H20.667C22.841 7.4091 24.605 9.1731 24.605 11.3481V19.7881ZM16.447 0.0150986C7.85704 0.0150986 0.894043 6.9771 0.894043 15.5671C0.894043 24.1571 7.85704 31.1211 16.447 31.1211C25.037 31.1211 32 24.1571 32 15.5671C32 6.9771 25.037 0.0150986 16.447 0.0150986Z" fill="white"/>
<path d="M16.4546 12.7548C14.9046 12.7548 13.6416 14.0178 13.6416 15.5678C13.6416 17.1178 14.9046 18.3808 16.4546 18.3808C18.0056 18.3808 19.2676 17.1178 19.2676 15.5678C19.2676 14.0178 18.0056 12.7548 16.4546 12.7548Z" fill="white"/>
</svg>
