<svg width="24" height="36" viewBox="0 0 24 36" fill="none" xmlns="http://www.w3.org/2000/svg">
<path fill-rule="evenodd" clip-rule="evenodd" d="M15.658 24.9519V23.1599L15.04 23.5739L3.96997 31.0219V32.8129L4.58797 32.3989L15.658 24.9519Z" fill="white"/>
<path fill-rule="evenodd" clip-rule="evenodd" d="M18.3681 24.9055L7.2981 32.3535V34.1445L7.9161 33.7305L18.9861 26.2825V24.4915L18.3681 24.9055Z" fill="white"/>
<path d="M23.8954 5.12774C23.8764 4.37974 23.5834 3.64674 23.0784 2.99374C22.5104 2.26174 21.6694 1.62374 20.6504 1.17974C19.6534 0.746743 18.4774 0.495743 17.2164 0.526743C15.4524 0.569743 13.5224 1.16274 11.6894 2.57774L0.431365 10.1517L0.0993652 10.3757V31.8487L12.5404 23.4787L12.5804 23.4507C15.2424 21.3877 18.0974 21.3677 20.0714 22.2297C20.6714 22.4917 21.1844 22.8327 21.5794 23.2197C21.9504 23.5837 22.2114 23.9807 22.3334 24.3787C22.5244 25.0087 22.3434 25.6857 21.6504 26.2677L10.6254 33.6847V35.4757L11.2444 35.0627L22.5244 27.4727L22.5854 27.4287C23.4354 26.7257 23.8424 25.9097 23.8954 25.0787V25.0657C23.9024 24.9507 23.9024 24.8347 23.8954 24.7197V5.12774Z" fill="white"/>
<path d="M6.29171 22.0851C6.08971 22.0501 5.88471 22.0271 5.68571 21.9771C4.89671 21.7751 4.33671 21.2871 3.94171 20.5851C3.85671 20.4331 3.97071 20.2001 4.09971 20.1361C4.19971 20.0851 4.25171 20.1401 4.29971 20.2261C4.57771 20.7311 4.96771 21.1231 5.49871 21.3591C6.17871 21.6621 6.87471 21.6451 7.57571 21.4531C8.46071 21.2101 9.22871 20.7441 9.92271 20.1581C11.5467 18.7881 12.6417 17.0601 13.3237 15.0581C13.3297 15.0421 13.3357 15.0241 13.3387 15.0071C13.3407 15.0001 13.3347 14.9911 13.3267 14.9661C13.1417 15.2251 12.9627 15.4751 12.7817 15.7241C12.7427 15.7781 12.7017 15.8371 12.6477 15.8731C12.6067 15.9001 12.5277 15.9191 12.4947 15.8981C12.4587 15.8741 12.4377 15.7961 12.4457 15.7471C12.4557 15.6791 12.4867 15.6081 12.5267 15.5511C12.8627 15.0751 13.2017 14.6021 13.5427 14.1291C13.5727 14.0861 13.6137 14.0481 13.6577 14.0191C13.7277 13.9711 13.7927 13.9771 13.8387 14.0581C14.0207 14.3811 14.2077 14.7031 14.3857 15.0291C14.4627 15.1701 14.3517 15.4161 14.1997 15.4631C14.1217 15.4881 14.0737 15.4571 14.0367 15.3881C13.9417 15.2161 13.8437 15.0471 13.7317 14.8531C13.6937 14.9661 13.6647 15.0531 13.6347 15.1391C12.8957 17.2541 11.7277 19.0851 10.0037 20.5351C9.25471 21.1671 8.42571 21.6681 7.46971 21.9271C7.22871 21.9921 6.97871 22.0171 6.73071 22.0601C6.69171 22.0671 6.65371 22.0771 6.61471 22.0851H6.29171Z" fill="#4B269F"/>
<path d="M9.2642 11.5583C9.0272 11.6903 8.8262 11.8283 8.6052 11.9193C8.3332 12.0303 8.2212 12.1983 8.2702 12.4913C8.3002 12.6713 8.2142 12.8153 8.0782 12.9403C7.9162 13.0883 7.7632 13.2463 7.6182 13.4103C7.3992 13.6563 7.4022 13.6623 7.1152 13.5013C7.0302 13.4543 6.9772 13.4633 6.9292 13.5493C6.8302 13.7253 6.7272 13.8983 6.6252 14.0723C6.5182 14.2563 6.4102 14.4413 6.2982 14.6333C6.3642 14.6743 6.4152 14.7073 6.4682 14.7393C6.6682 14.8593 6.6782 14.8993 6.6072 15.1173C6.5282 15.3553 6.4542 15.5953 6.3922 15.8373C6.3472 16.0083 6.2652 16.1393 6.1022 16.2163C6.0132 16.2583 5.9272 16.3083 5.8442 16.3603C5.8142 16.3793 5.7742 16.4163 5.7742 16.4463C5.7692 16.8043 5.7712 17.1613 5.7712 17.5453C5.9082 17.4703 6.0242 17.4053 6.1402 17.3423C6.2952 17.2573 6.3372 17.2783 6.3962 17.4383C6.4472 17.5773 6.4962 17.7203 6.5752 17.8423C6.6662 17.9843 6.6582 18.1073 6.5762 18.2423C6.5022 18.3643 6.4262 18.4863 6.3642 18.6153C6.3442 18.6543 6.3492 18.7443 6.3742 18.7613C6.5762 18.8923 6.7852 19.0123 6.9992 19.1393C7.1042 18.9603 7.2002 18.7933 7.2992 18.6293C7.3572 18.5343 7.4292 18.4663 7.5562 18.4643C7.7252 18.4623 7.8952 18.4503 8.0632 18.4293C8.2302 18.4083 8.2702 18.4343 8.2732 18.6103C8.2752 18.7433 8.2732 18.8753 8.2732 19.0343C8.4992 18.9083 8.6922 18.7743 8.9052 18.6883C9.1942 18.5723 9.3212 18.3933 9.2682 18.0783C9.2402 17.9133 9.3232 17.7793 9.4472 17.6643C9.6082 17.5153 9.7612 17.3573 9.9082 17.1953C10.1372 16.9403 10.1342 16.9353 10.4312 17.0983C10.4972 17.1333 10.5492 17.1413 10.5902 17.0703C10.8052 16.7043 11.0192 16.3363 11.2392 15.9603C11.1632 15.9143 11.0952 15.8713 11.0272 15.8303C10.8772 15.7403 10.8602 15.6913 10.9162 15.5213C10.9732 15.3513 11.0352 15.1833 11.0832 15.0113C11.2342 14.4663 11.1342 14.5413 11.6762 14.2463C11.7502 14.2043 11.7722 14.1553 11.7712 14.0753C11.7682 13.7793 11.7702 13.4833 11.7692 13.1873C11.7692 13.1483 11.7632 13.1103 11.7572 13.0533C11.6132 13.1323 11.4862 13.2053 11.3572 13.2733C11.2572 13.3263 11.1932 13.3043 11.1522 13.1893C11.0972 13.0383 11.0422 12.8833 10.9582 12.7483C10.8732 12.6103 10.8762 12.4913 10.9542 12.3603C11.0312 12.2333 11.1092 12.1073 11.1752 11.9753C11.1952 11.9383 11.1942 11.8533 11.1712 11.8383C10.9662 11.7053 10.7542 11.5833 10.5372 11.4543C10.4812 11.5503 10.4332 11.6303 10.3852 11.7113C10.3352 11.7963 10.2872 11.8823 10.2372 11.9663C10.1692 12.0793 10.0782 12.1343 9.9382 12.1283C9.7872 12.1223 9.6342 12.1383 9.4842 12.1603C9.3042 12.1853 9.2682 12.1643 9.2642 11.9833C9.2622 11.8513 9.2642 11.7193 9.2642 11.5583ZM10.1032 17.5183C9.9522 17.6563 9.8152 17.7773 9.6842 17.9063C9.6572 17.9333 9.6482 17.9853 9.6452 18.0273C9.6372 18.1393 9.6462 18.2523 9.6302 18.3623C9.5962 18.6073 9.4702 18.7973 9.2532 18.9203C8.9342 19.1023 8.6142 19.2813 8.2922 19.4583C8.0372 19.5993 7.9022 19.5173 7.8972 19.2253C7.8952 19.1323 7.8962 19.0383 7.8962 18.9333C7.7522 18.9433 7.6232 18.9473 7.4952 18.9633C7.4662 18.9673 7.4362 19.0103 7.4152 19.0423C7.3382 19.1623 7.2782 19.2963 7.1892 19.4063C7.0222 19.6133 6.8692 19.7123 6.6072 19.5263C6.4612 19.4223 6.3002 19.3413 6.1462 19.2493C5.9792 19.1493 5.9102 19.0333 5.9602 18.8463C6.0092 18.6673 6.0902 18.4953 6.1722 18.3293C6.2092 18.2513 6.2202 18.1953 6.1762 18.1193C6.1252 18.0313 6.0902 17.9343 6.0442 17.8323C5.9372 17.8903 5.8382 17.9493 5.7342 17.9983C5.5452 18.0903 5.4042 18.0153 5.4002 17.8083C5.3922 17.3873 5.3872 16.9653 5.4042 16.5443C5.4132 16.2873 5.5512 16.0763 5.7842 15.9643C5.9812 15.8683 6.1072 15.7413 6.1312 15.5203C6.1332 15.4983 6.1442 15.4773 6.1512 15.4553C6.2222 15.2273 6.2232 15.2253 6.0312 15.0953C5.8982 15.0063 5.9012 14.8743 5.9272 14.7463C5.9472 14.6523 5.9882 14.5583 6.0352 14.4743C6.2432 14.1083 6.4522 13.7423 6.6742 13.3843C6.7502 13.2613 6.8542 13.1483 6.9672 13.0583C7.1282 12.9303 7.3032 12.9693 7.4182 13.0613C7.5762 12.9253 7.7212 12.8053 7.8592 12.6773C7.8852 12.6523 7.8922 12.5973 7.8952 12.5553C7.9002 12.4703 7.8932 12.3853 7.8992 12.3003C7.9162 12.0253 8.0412 11.8123 8.2812 11.6743C8.6032 11.4893 8.9282 11.3093 9.2542 11.1293C9.4932 10.9983 9.6342 11.0813 9.6432 11.3523C9.6462 11.4543 9.6432 11.5563 9.6432 11.6493C9.6672 11.6583 9.6712 11.6613 9.6752 11.6613C9.9722 11.6943 10.1712 11.5783 10.2812 11.2913C10.3152 11.2013 10.4012 11.1243 10.4782 11.0583C10.6142 10.9443 10.7172 10.9443 10.8702 11.0353C11.0442 11.1383 11.2172 11.2413 11.3902 11.3453C11.5532 11.4433 11.6252 11.5653 11.5762 11.7483C11.5272 11.9273 11.4462 12.0983 11.3642 12.2653C11.3262 12.3433 11.3162 12.3983 11.3612 12.4743C11.4112 12.5613 11.4472 12.6593 11.4932 12.7633C11.5972 12.7043 11.6932 12.6473 11.7912 12.5983C11.9832 12.5013 12.1332 12.5763 12.1392 12.7883C12.1502 13.2053 12.1542 13.6223 12.1362 14.0383C12.1242 14.3053 11.9822 14.5203 11.7392 14.6383C11.5552 14.7263 11.4312 14.8403 11.4112 15.0513C11.4082 15.0903 11.3882 15.1283 11.3762 15.1663C11.3132 15.3713 11.3132 15.3713 11.4962 15.4933C11.6122 15.5703 11.6532 15.6873 11.6072 15.8633C11.5832 15.9533 11.5452 16.0413 11.4992 16.1223C11.2902 16.4883 11.0782 16.8523 10.8622 17.2133C10.8022 17.3113 10.7272 17.4043 10.6422 17.4813C10.4682 17.6403 10.2782 17.6643 10.1032 17.5183Z" fill="#4B269F"/>
<path d="M3.98803 16.3523C4.18303 16.0793 4.36503 15.8243 4.54803 15.5713C4.58503 15.5203 4.62503 15.4673 4.67503 15.4353C4.71403 15.4093 4.79103 15.3903 4.81803 15.4113C4.85403 15.4393 4.88103 15.5123 4.87403 15.5593C4.86203 15.6313 4.82903 15.7063 4.78703 15.7663C4.45403 16.2393 4.11703 16.7083 3.78003 17.1783C3.74903 17.2213 3.70903 17.2603 3.66603 17.2903C3.59203 17.3423 3.52403 17.3343 3.47503 17.2483C3.29503 16.9283 3.11103 16.6103 2.93403 16.2883C2.85603 16.1453 2.96003 15.9033 3.11303 15.8503C3.18803 15.8243 3.24003 15.8493 3.27903 15.9193C3.37603 16.0953 3.47603 16.2693 3.58903 16.4653C3.66103 16.1883 3.71703 15.9333 3.79403 15.6843C4.53403 13.2653 5.82503 11.2073 7.82003 9.62534C8.56003 9.04034 9.37703 8.58734 10.309 8.37934C11.056 8.21334 11.789 8.23934 12.479 8.60734C13.246 9.01734 13.676 9.69034 13.923 10.4983C13.946 10.5763 13.916 10.6893 13.872 10.7633C13.831 10.8313 13.743 10.8863 13.665 10.9053C13.638 10.9123 13.563 10.8013 13.54 10.7333C13.262 9.93134 12.797 9.29434 11.989 8.96134C11.326 8.68834 10.648 8.72234 9.97303 8.91334C9.00503 9.18834 8.17603 9.71634 7.43803 10.3843C5.67503 11.9783 4.54003 13.9483 3.98403 16.2563C3.98103 16.2693 3.97903 16.2823 3.97803 16.2953C3.97703 16.3043 3.98103 16.3123 3.98803 16.3523Z" fill="#4B269F"/>
<path d="M7.50737 15.9372C7.51637 16.0552 7.51837 16.1452 7.53037 16.2332C7.61337 16.7772 8.03937 17.0362 8.55237 16.8382C8.72537 16.7722 8.89237 16.6722 9.03637 16.5562C9.47837 16.2002 9.76337 15.7352 9.92837 15.1952C10.0104 14.9272 10.0454 14.6542 10.0074 14.3732C9.93537 13.8342 9.52137 13.5672 9.00937 13.7442C8.87937 13.7892 8.74937 13.8512 8.64037 13.9322C7.95337 14.4362 7.58837 15.1212 7.50737 15.9372ZM10.4214 14.3372C10.2944 15.5602 9.80037 16.5132 8.79137 17.1562C8.60637 17.2742 8.37237 17.3402 8.15237 17.3752C7.75037 17.4382 7.42237 17.2312 7.26137 16.8552C7.08837 16.4542 7.11037 16.0392 7.20937 15.6282C7.41237 14.7962 7.83837 14.1002 8.52337 13.5762C8.79637 13.3662 9.10037 13.2142 9.45637 13.2072C9.84537 13.2002 10.1254 13.3792 10.2684 13.7332C10.3504 13.9372 10.3794 14.1632 10.4214 14.3372Z" fill="#4B269F"/>
</svg>
